<?xml version="1.0" encoding="UTF-8" standalone="no"?>
<svg
   xmlns:dc="http://purl.org/dc/elements/1.1/"
   xmlns:cc="http://creativecommons.org/ns#"
   xmlns:rdf="http://www.w3.org/1999/02/22-rdf-syntax-ns#"
   xmlns:svg="http://www.w3.org/2000/svg"
   xmlns="http://www.w3.org/2000/svg"
   version="1.1"
   viewBox="-10 0 266 256"
   id="svg6">
  <metadata
     id="metadata12">
    <rdf:RDF>
      <cc:Work
         rdf:about="">
        <dc:format>image/svg+xml</dc:format>
        <dc:type
           rdf:resource="http://purl.org/dc/dcmitype/StillImage" />
        <dc:title></dc:title>
      </cc:Work>
    </rdf:RDF>
  </metadata>
  <defs
     id="defs10" />
  <g
     transform="matrix(1,0,0,-1,-4.5176471,212.73412)"
     id="g4">
     <clipPath>
         <path
       fill="currentColor"
       d="m 111,204 q 4,-3 9,-6 3,-3 0,-6 -8,-12 5,-55 l 24,4 q 11,1 23,4 3,0 5,3 1,2 8,1 5,-2 16,-6 2,-2 1,-5 -2,-3 -5,-1 -11,6 -23,5 -12,-1 -49,-9 9,-37 36,-80 15,22 17,32 -1,3 0,3 1,1 3,-1 6,-9 2,-14 -7,-10 -18,-27 27,-39 60,-59 2,-1 3,0 1,1 2,3 -2,8 -1,33 0,5 1,6 1,0 2,-5 3,-31 9,-41 1,-4 0,-6 -1,-1 -4,0 -41,19 -75,65 -19,-21 -47,-34 -4,-2 -6,-2 -1,1 3,3 30,18 46,39 -25,42 -38,84 -2,-1 -5,-2 -28,-7 -43,-12 -8,-2 -5,-8 9,-86 -42,-115 -3,-1 -4,0 0,2 3,3 49,33 38,113 -1,0 -1,1 -1,8 -5,7 -3,0 -7,-1 -4,-1 -6,0 -8,3 -3,13 0,1 1,2 2,2 4,6 1,5 2,0 -2,-16 2,-16 10,1 16,0 3,-1 14,1 10,3 40,11 -1,1 -1,3 -6,28 -7,47 -1,2 -1,3 -1,9 -2,13 -2,2 -1,3 1,1 4,0 z m 48,-6 q 24,-6 33,-17 0,-4 -4,-5 -3,-3 -15,9 l -15,12 q -4,2 1,1 z M 123,86 q 3,-2 2,-5 0,-2 -3,-3 -2,0 -4,-7 -10,-31 -30,-44 -8,-3 -8,5 0,4 -4,10 -3,4 1,2 11,-14 17,-7 19,18 16,41 -1,7 -6,8 -8,1 -16,-4 -4,-3 -15,-1 -2,0 -2,1 0,1 2,2 12,2 20,6 7,2 15,1 6,-1 15,-5 z"
       id="cheng"
       style="fill:none;stroke:#000000;stroke-opacity:1" />
     </clipPath>

  </g>
  <path
     style="fill:none;stroke:#000000;stroke-width:1px;stroke-linecap:butt;stroke-linejoin:miter;stroke-opacity:1"
     d="m 40.898824,68.668235 c -6.02353,25.6 0.602352,24.395294 0.602352,24.395294 L 54.451765,90.955294 64.992941,92.16 136.97412,74.390588 179.13882,66.56 l 23.49177,9.637647 -31.92471,3.614118"
     id="path837" />
  <path
     style="fill:none;stroke:#000000;stroke-width:1px;stroke-linecap:butt;stroke-linejoin:miter;stroke-opacity:1"
     d="m 61.077647,92.762353 c -1.505882,6.625882 0,24.696467 0,24.696467 l 0.903529,22.58824 -6.023529,29.81647 -11.444706,23.49176 -19.275294,19.87765 -11.745882,6.32471"
     id="path839" />
  <path
     style="fill:none;stroke:#000000;stroke-width:1px;stroke-linecap:butt;stroke-linejoin:miter;stroke-opacity:1"
     d="m 64.691765,130.10824 c 3.790588,-1.37412 16.263529,-1.20471 16.263529,-1.20471 l 12.047056,-4.21647 h 11.14353 l 19.2753,10.84235 -12.04706,-3.01176 -5.72236,25.6 -9.03529,12.95059 -20.479999,17.46823 4.818823,-6.92706 -13.854118,-16.26353"
     id="path841" />
  <path
     style="fill:none;stroke:#000000;stroke-width:1px;stroke-linecap:butt;stroke-linejoin:miter;stroke-opacity:1"
     d="m 112.27765,9.6376471 -2.71059,18.0705879 2.10823,24.696471 10.54118,41.562353 18.67294,43.068231 21.68471,36.74353 22.88941,27.40706 24.99765,20.48 26.02117,14.06824 -9.75764,-19.18824 L 225.21882,179.2"
     id="path843" />
  <path
     style="fill:none;stroke:#000000;stroke-width:1px;stroke-linecap:butt;stroke-linejoin:miter;stroke-opacity:1"
     d="m 148.11765,12.649412 27.40706,14.45647 15.05882,10.950589"
     id="path845" />
  <path
     style="fill:none;stroke:#000000;stroke-width:1px;stroke-linecap:butt;stroke-linejoin:miter;stroke-opacity:1"
     d="m 180.04235,124.38588 c -3.56,1.34824 -19.57647,37.34588 -19.57647,37.34588 l -22.28706,23.79295 -40.05647,25.6"
     id="path847" />
</svg>
