<?xml version="1.0" encoding="UTF-8" standalone="no"?>
<svg
   xmlns:dc="http://purl.org/dc/elements/1.1/"
   xmlns:cc="http://creativecommons.org/ns#"
   xmlns:rdf="http://www.w3.org/1999/02/22-rdf-syntax-ns#"
   xmlns:svg="http://www.w3.org/2000/svg"
   xmlns="http://www.w3.org/2000/svg"
   version="1.1"
   viewBox="-29 0 296 256"
   id="svg6">
  <metadata
     id="metadata12">
    <rdf:RDF>
      <cc:Work
         rdf:about="">
        <dc:format>image/svg+xml</dc:format>
        <dc:type
           rdf:resource="http://purl.org/dc/dcmitype/StillImage" />
        <dc:title></dc:title>
      </cc:Work>
    </rdf:RDF>
  </metadata>
  <defs
     id="defs10" />
  <g
     transform="matrix(1 0 0 -1 0 204)"
     id="g4">
   <clipPath id="zhi">
    <path
       fill="currentColor"
       d="M154.985 180.978q16.9326 -5.92578 14.3926 -17.7803q-0.845703 -11.0078 -1.69238 -22.0146q3.38574 0.845703 11.0068 1.69238q5.08008 0.847656 6.77539 1.69336q1.69434 5.92871 11.0088 7.62109q5.07812 0 21.166 -7.62109q2.54004 -2.54004 -0.847656 -5.0791 q-2.54199 -1.69434 -6.77441 0q-8.46582 5.92773 -42.335 -2.54004q-2.54004 -21.167 -5.92578 -37.2568q0.84375 0 4.23242 0.847656q5.0791 1.69238 6.77539 4.23242q0.84668 2.54199 7.61816 2.54199q13.5508 -1.69238 17.7832 -3.38574 q1.69336 -2.54297 0.845703 -3.38867q-0.845703 -0.847656 -3.38574 -0.847656q-9.31445 0.847656 -20.3213 -1.69238q-9.31543 -1.69238 -44.0303 -11.8545q-10.1602 -3.38574 -15.2422 0q-1.69238 0.84668 -1.69238 1.69238q0.845703 0.847656 3.38574 1.69434 q18.6289 1.69531 35.5625 8.46777q-0.845703 2.54004 0.84668 5.92871q1.69336 2.53906 2.54004 9.31152q0.845703 5.92871 1.69336 22.0127q-5.92578 -0.844727 -13.5459 -4.23242q-10.1602 -2.54004 -22.0146 -5.07812q-11.0078 -2.54004 -19.4766 0.845703 q-2.53906 0.84668 -2.53906 1.69238q0.845703 0.847656 4.2334 0.847656q7.62012 0 15.2402 0.84668q0.848633 0 2.54199 0.845703q8.4668 0.847656 18.627 3.3877q11.0078 2.54102 16.9336 4.23438q0 21.1689 -0.847656 27.0947q-0.845703 6.77441 -5.07812 13.5479 q-2.54004 1.69238 -1.69336 1.69238q0.845703 0.847656 4.2334 0zM221.028 92.918q20.3232 -3.38574 31.3311 -8.46582q5.92578 -3.38867 4.23242 -8.4668q-2.54004 -6.77344 -9.31445 -1.69434q-14.3945 12.7012 -27.0947 16.9365q-4.2334 1.69043 0.845703 1.69043z M153.291 81.0635q2.54004 -8.46582 11.0088 -8.46582q4.23242 -0.845703 11.0078 -5.92578q1.69238 -5.08008 -5.92969 -6.77441q-16.0869 6.77441 -19.4727 20.3203q0 1.69434 0.84668 2.54199q1.69336 0 2.53906 -1.69629zM193.937 63.2871 q-5.92871 2.53809 0.845703 1.69238q23.707 -9.31445 38.9492 -25.4023q11.8545 -12.7031 19.4736 -17.7822q2.54004 -1.69434 1.69434 -3.38672q0 -1.69336 -2.54004 -2.54004q-38.1064 -11.0078 -77.0518 -0.845703q-37.2568 11.0059 -49.1123 38.1025 q-1.69238 1.69238 -0.844727 2.54004q0.844727 0.845703 3.38477 -0.847656q37.2568 -48.2607 104.996 -38.9492q3.3877 0 3.3877 0.84668q0.845703 1.69336 -0.847656 4.2334q-18.6289 29.6348 -42.335 42.3389zM110.955 59.8975q-4.23242 -9.31445 -5.08105 -17.7803 q-0.845703 -9.31445 3.38867 -14.3945q2.54004 -4.23438 -5.08203 -5.08203q-7.61816 -1.69238 -6.77246 16.9365q-0.845703 4.2334 3.38672 8.46582q3.38574 1.69238 4.2334 5.92871q0.845703 2.53906 4.23438 6.77539q3.38574 2.54004 1.69238 -0.849609zM52 49q5 4 18 -4 q3 -3 3 -4t-3 -1q-9 -4 -16 -15q8 1 10 -2t1 -3q0 -1 -2 0q-15 -3 -28 -7q1 -5 3 -7l1 -3q0 -1 -4 -1q-3 -1 -5 1q-1 1 -1 2q-5 7 -5 14q-3 11 -3 15q-2 3 3 -2q2 4 9 9q9 3 19 8zM52 103q4 0 11 -1q2 -1 2 -2t-2 -1q-24 -8 -42 -28q-3 -3 -3 -5q1 -2 4 -1q2 0 3 1 q10 2 18 6q5 2 7 6q1 2 5 1q3 -1 8 -2q2 -1 2 -3t-2 -2q-11 -4 -20 -9q-4 -4 -7 -5q-6 -4 -1 1q3 3 5 6q3 4 -2 2q-11 -3 -18 -7q-5 -2 -4 2q-3 6 6 14l10 10v2t-2 1q-4 -2 -7 -1q-5 0 0 2q5 1 13 4q4 2 7 3t4 4q1 2 5 2zM63 133q6 1 14 0h5q3 -5 -1 -6q-10 1 -28 -7 q-8 -4 -1 2q2 2 1 3h-3q-24 -9 -43 -12q-14 -3 -23 0q-5 1 0 2q22 1 74 16q3 1 5 2zM54 47q-11 -6 -19 -9q-9 -4 -9 -9q2 -6 7 -12l3 1q5 2 7 2q0 2 3 4q6 6 12 21q0 1 -1 2h-3zM25 182q-3 3 1 1q9 -5 17 -6q16 -4 23 -15q-1 -6 -7 -3q-5 3 -9 2q-2 -1 -4 -1q-5 -2 -8 -1 q-3 -1 -4 0q0 1 3 4q6 4 3 7q-10 5 -15 12z"
       id="path2"
       style="fill:none;stroke:#000000;stroke-opacity:1" />
   </clipPath>
  </g>
  <path
     style="fill:none;stroke:#000000;stroke-width:1px;stroke-linecap:butt;stroke-linejoin:miter;stroke-opacity:1"
     d="m 21.898824,20.48 31.623529,18.371765 11.143529,8.734117"
     id="path837" />
  <path
     style="fill:none;stroke:#000000;stroke-width:1px;stroke-linecap:butt;stroke-linejoin:miter;stroke-opacity:1"
     d="M -22.374118,90.955294 15.875294,87.341176 45.089412,78.305882 86.35059,73.487059 74.60471,74.390588 37.56,90.051765"
     id="path839" />
  <path
     style="fill:none;stroke:#000000;stroke-width:1px;stroke-linecap:butt;stroke-linejoin:miter;stroke-opacity:1"
     d="M 17.983529,117.15765 67.376471,102.09882 40.270588,112.03765 19.188235,133.12 16,142 l -1.329412,5.87765 c 0,0 40.357647,-19.57647 42.164706,-19.87765 1.807059,-0.30118 11.444706,-0.90353 11.444706,-0.90353 0,0 -21.684706,9.33647 -22.889412,9.93882 -1.204706,0.60236 -16.263529,12.64942 -16.263529,12.64942"
     id="path841" />
  <path
     style="fill:none;stroke:#000000;stroke-width:1px;stroke-linecap:butt;stroke-linejoin:miter;stroke-opacity:1"
     d="m 21,170 14,32 2.861176,2.49882"
     id="path843" />
  <path
     style="fill:none;stroke:#000000;stroke-width:1px;stroke-linecap:butt;stroke-linejoin:miter;stroke-opacity:1"
     d="m 24,172 9,-9 21,-6 16,2 c 0,0 -13.465882,6.04471 -12.863529,8.75529 0.602353,2.71059 -7.228236,17.16706 -7.228236,17.16706 L 47.8,190.64471"
     id="path845" />
  <path
     style="fill:none;stroke:#000000;stroke-width:1px;stroke-linecap:butt;stroke-linejoin:miter;stroke-opacity:1"
     d="m 28.825882,189.13882 42.164706,-7.52941"
     id="path847" />
  <path
     style="fill:none;stroke:#000000;stroke-width:1px;stroke-linecap:butt;stroke-linejoin:miter;stroke-opacity:1"
     d="m 94.78353,75.294118 c 6.01095,0.224899 34.33412,-0.602353 34.33412,-0.602353 l 66.56,-16.26353 14.75764,1.204706 10.24,4.216471"
     id="path849" />
  <path
     style="fill:none;stroke:#000000;stroke-width:1px;stroke-linecap:butt;stroke-linejoin:miter;stroke-opacity:1"
     d="m 160.44,20.781176 2.71059,53.910589 -5.72235,31.623525 v 7.83059"
     id="path851" />
  <path
     style="fill:none;stroke:#000000;stroke-width:1px;stroke-linecap:butt;stroke-linejoin:miter;stroke-opacity:1"
     d="m 109.84235,117.76 32.22589,-5.12 c 0,0 40.35764,-11.14353 41.56235,-11.44471 1.2047,-0.30117 18.37176,0.60236 18.37176,0.60236"
     id="path853" />
  <path
     style="fill:none;stroke:#000000;stroke-width:1px;stroke-linecap:butt;stroke-linejoin:miter;stroke-opacity:1"
     d="m 110.14353,139.44471 -8.73412,24.99764 3.31294,20.78118"
     id="path855" />
  <path
     style="fill:none;stroke:#000000;stroke-width:1px;stroke-linecap:butt;stroke-linejoin:miter;stroke-opacity:1"
     d="m 122.79294,144.26353 20.17882,24.39529 31.32236,18.07059 33.73176,5.72235 23.79294,-1.50588 23.08102,-5.35414 -13.14219,-4.2835 L 216.76,152.99765 186.64235,135.22824"
     id="path857" />
  <path
     style="fill:none;stroke:#000000;stroke-width:1px;stroke-linecap:butt;stroke-linejoin:miter;stroke-opacity:1"
     d="m 148.39294,118.06118 c 2.35895,3.17904 9.0353,15.05882 9.0353,15.05882 l 20.78117,11.44471"
     id="path859" />
  <path
     style="fill:none;stroke:#000000;stroke-width:1px;stroke-linecap:butt;stroke-linejoin:miter;stroke-opacity:1"
     d="m 213.14588,109.32706 30.72,10.84235 15.05883,12.95059"
     id="path861" />
</svg>
