<?xml version="1.0" encoding="UTF-8" standalone="no"?>
<svg
   xmlns:dc="http://purl.org/dc/elements/1.1/"
   xmlns:cc="http://creativecommons.org/ns#"
   xmlns:rdf="http://www.w3.org/1999/02/22-rdf-syntax-ns#"
   xmlns:svg="http://www.w3.org/2000/svg"
   xmlns="http://www.w3.org/2000/svg"
   version="1.1"
   viewBox="-10 0 266 256"
   id="svg6">
  <metadata
     id="metadata12">
    <rdf:RDF>
      <cc:Work
         rdf:about="">
        <dc:format>image/svg+xml</dc:format>
        <dc:type
           rdf:resource="http://purl.org/dc/dcmitype/StillImage" />
        <dc:title></dc:title>
      </cc:Work>
    </rdf:RDF>
  </metadata>
  <defs
     id="defs10" />
  <g
     transform="matrix(1 0 0 -1 0 204)"
     id="g4">
    <clipPath id="xiao">
    <path
       fill="currentColor"
       d="m 94,168.45432 q 12,-8.32344 16,-12.94757 4,0.92482 13,2.77448 12,2.77448 25,6.47378 16,19.42136 11,29.59445 -1,1.84966 0,1.84966 1,0 4,-0.92483 12,-8.32344 8,-12.94757 -2,-2.77448 -5,-8.32344 -2,-2.77448 -3,-5.54896 13,2.77448 17,5.54896 3,1.84965 7,1.84965 9,-1.84965 15,-2.77448 2,-0.92482 1,-3.6993 0,-1.84966 -2,-0.92483 -9,0.92483 -17,-0.92483 l -9,-2.77448 q -11,-1.84965 -16,-2.77448 -16,-16.64687 -28,-23.12066 1,-2.77448 1,-8.32344 5,0 11,0.92483 9,1.84965 12,1.84965 7,0.92483 10,0 0,-1.84965 5,-4.62413 4,-2.77448 5,-3.69931 1,-1.84965 1,-3.6993 -1,-1.84966 -3,-0.92483 -6,-0.92483 -9,-4.62413 38,4.62413 42,7.39861 4,1.84965 8,0.92483 7,-2.77448 15,-4.62414 1,-0.92482 1,-1.84965 -1,-3.69931 -11,-2.77448 -11,0.92483 -35,-7.39861 -7,-1.84965 -2,1.84965 9,2.77448 14,5.54896 4,2.77448 -1,1.84965 -18,-3.6993 -34,-4.62413 -14,-14.797223 -34,-21.271009 v -3.699306 q 16,3.699306 15,7.398612 0,0.924827 2,1.849653 l 18,-1.849653 q 2,0 2,-0.924826 0,-1.849653 -9,-3.699306 -10,-1.849654 -29,-9.248266 0,-30.519275 -1,-36.993061 9,0.924826 15,2.77448 0,3.699306 6,3.699306 1,-0.924827 2,-0.924827 h 6 q 2,-0.924826 1,-2.774479 0,-1.849654 -2,-1.849654 -7,0 -28,-4.624132 -2,-15.722051 -2,-25.895143 0,-11.0979185 1,-16.6468777 -1,-14.7972243 4,-24.0454903 2,-1.849653 -2,-3.699306 -5,-1.849653 -6,3.699306 -4,10.173092 -4,17.5717046 0,1.849653 2,3.6993061 1,0.9248265 2,0.9248265 V 19.557248 38.978605 Q 114,37.128952 104,34.354473 98,32.50482 96,32.50482 93,30.655166 93,31.579993 l 1,4.624133 1,0.924826 q 1,0 2,0.924827 2,-0.924827 6,0 2,0 3,0.924826 7,0.924827 15,4.624133 v 12.022745 q 0,0 1,24.04549 -12,-4.624133 -9,-0.924827 2,0.924827 -2,0.924827 -10,-2.77448 -24,-3.699306 -4,0 -1,1.849653 15,0.924826 36,8.323438 1,1.849653 1,3.699307 -3,-0.924827 -6,-0.924827 h -1 q -3,0.924827 0,1.849653 1,-0.924826 3,0.924827 2,0.924826 4,0.924826 v 6.473786 q 0,0 1,7.39861 -29,-4.62413 -60,-12.947569 -15,-5.54896 -27,-0.924827 -4,0 0,0.924827 6,-0.924827 18,1.849653 l 4,1.849653 q 22,4.624133 58,12.022743 4,0.92483 7,1.84965 -1,5.54896 1,12.02275 -2,-0.92483 -5,-0.92483 -13,-2.77448 -18,-0.92482 -3,0 1,1.84965 4,0 12,2.77448 6,1.84965 10,2.77448 v 7.39861 q -3,-1.84965 -6,-2.77448 -6,-2.77448 -2,0.92483 1,0.92482 4,2.77448 2,0.92482 4,2.77448 0,0.92482 -2,2.77448 v 1.84965 q -1,1.84965 1,0.92483 l 2,-1.84966 q 0,0 3,-0.92482 5,4.62413 15,16.64687 -8,-2.77448 -31,-9.24826 2,-2.77448 4,-7.39861 1,-7.39862 -8,-3.69931 -3,0 -6,7.39861 v 0.92483 q -16,-3.69931 -28,0 -2,0.92483 2,1.84965 h 3 q 6,0.92483 21,4.62414 -2,6.47378 -8,13.87239 -1,1.84966 1,0.92483 z M 142,-8.1875479 q -4,9.2482653 -1,12.0227449 2,2.7744796 1,19.421357 0,6.473786 -4,10.173092 -4,1.849653 1,0.924827 1,0 3,-0.924827 2,0 7,0.924827 3,0.924826 5,0.924826 1,0.924827 7,2.77448 h 3 q 4,0.924826 7,0.924826 h 1 q -1,4.624133 -1,11.097919 -1,6.473785 -1,12.022745 -23,-2.77448 -30,-6.473786 -1,-0.924827 -3,-0.924827 -2,-1.849653 -4,3.699306 -1,0.924827 4,1.849654 0,0.924826 2,2.774479 1,0.924827 2,2.77448 7,9.248265 2,14.797224 -2,2.77448 1,1.849653 3,-0.924826 6,-4.624132 3,-4.624133 -1,-7.398613 -1,-1.849653 -3,-2.774479 -3,-3.699306 -4,-6.473786 h 3 l 12,1.849653 q -1,2.77448 4,2.77448 h 9 v 17.571704 q 0,4.624132 -3,9.248265 -2,1.849653 1,0.924827 8,-4.624133 11,-8.323439 3,-2.77448 1,-4.624133 -1,-0.924826 -1,-1.849653 -3,-3.699306 -3,-12.947571 1,0 1,-0.924827 0,-0.924826 -1,-1.849653 -1,-19.421357 2,-52.715112 0,-6.473786 1,-9.2482656 2,-12.9475714 9,-23.1206634 l 1,-0.924826 q 4,-4.624133 5,-8.323439 1,-1.849653 -3,-3.699306 -4,-0.924827 -7,7.398612 -11,15.722051 -18,19.4213571 -2,1.8496531 -1,5.5489592 1,1.84965306 7,0 h 3 q 0,0 1,0.9248265 -3,20.3461842 -4,33.2937552 v 3.699306 h -1 l -8,-1.849653 q -5,-0.924826 -8,-0.924826 -4,-1.849654 -7,-1.849654 3,-0.924826 0,-5.548959 -2,-2.774479 -3,-13.872398 0,-12.9475712 2,-18.4965304 -2,-1.849653 -5,-0.9248265 z M 98,21.406901 Q 87,18.632422 80,19.557248 76,-19.285466 46,-30.383385 q -8,-1.849653 -2,1.849653 33,12.947572 33,73.986123 2,18.496531 -5,23.120663 0,0.924827 2,0.924827 12,-7.398612 10,-8.323439 -3,-6.473786 -2,-12.947571 3,-0.924827 18,4.624132 3,11.097919 3,12.947572 0,3.699306 -2,6.473785 -3,1.849654 0,0.924827 0,-0.924827 1,-0.924827 3,-0.924826 6,-2.774479 4,-1.849653 0,-6.473786 -2,-1.849653 -3,-6.473786 l -1,-2.774479 h 3 6 q 2,-1.849653 2,-2.77448 -13,-1.849653 -27,-5.548959 -2,-0.924827 -3,-0.924827 -3,-0.924826 -4,0 0,-4.624132 -1,-12.022744 V 22.331728 q 6,0 19,2.774479 2,2.77448 5,2.77448 8,-3.699306 5,-6.473786 -3,-1.849653 -3,-3.699306 -2,-11.0979184 -2,-18.49653064 0,-8.32343876 -1,-12.94757136 -1,-1.849653 -2,-0.924827 -4,4.624133 -5,8.3234392 -2,3.6993061 2,3.6993061 3,0 3,19.4213567 0,5.54896 -3,4.624133 z m 63,103.580569 q 0,2.77448 -1,3.69931 0,0.92483 -4,0.92483 -11,-0.92483 -25,-4.62414 -1,-3.6993 -1,-6.47378 -1,-3.69931 -1,-6.47379 11,0.92483 26,2.77448 4,5.54896 6,10.17309 z m -9,-13.8724 q -12,-1.84965 -23,-3.6993 0,-1.84965 -1,-5.54896 v -6.473786 q 13,4.624136 24,15.722046 z"
       style="fill:none;fill-opacity:1;stroke:#f40000;stroke-width:0.961679;stroke-opacity:1" />
    </clipPath>
  </g>
  <path
     style="fill:none;stroke:#000000;stroke-width:1px;stroke-linecap:butt;stroke-linejoin:miter;stroke-opacity:1"
     d="M 69.510588,56.018824 C 94.20706,55.717647 127.63765,46.983529 127.63765,46.983529 l 69.27059,-15.058823 14.45647,2.710588"
     id="path839" />
  <path
     style="fill:none;stroke:#000000;stroke-width:1px;stroke-linecap:butt;stroke-linejoin:miter;stroke-opacity:1"
     d="m 89.388235,33.430588 c 10.842355,8.734118 25.298825,32.828236 25.298825,32.828236"
     id="path845" />
  <path
     style="fill:none;stroke:#000000;stroke-width:1px;stroke-linecap:butt;stroke-linejoin:miter;stroke-opacity:1"
     d="m 169.2,12.649412 c -24.39529,40.05647 -41.26118,52.404706 -41.26118,52.404706 l -14.15529,8.432941"
     id="path847" />
  <path
     style="fill:none;stroke:#000000;stroke-width:1px;stroke-linecap:butt;stroke-linejoin:miter;stroke-opacity:1"
     d="m 98.42353,83.124706 c 29.21412,-5.421177 53.00706,-9.938824 53.00706,-9.938824 l 18.37176,-2.710588 -15.66117,26.50353 -22.28706,12.348236 c 0,0 -8.85412,4.82888 -8.85412,4.82888 l -14.33647,-0.31123"
     id="path849" />
  <path
     style="fill:none;stroke:#000000;stroke-width:1px;stroke-linecap:butt;stroke-linejoin:miter;stroke-opacity:1"
     d="M 30.357647,112.03765 C 52.343529,111.73647 133.66118,93.364706 133.66118,93.364706 l 76.8,-9.637647 L 230,86.41114 c 0,0 -18.63529,1.231213 -23.45412,1.833566 -4.81882,0.602353 -34.63529,11.143529 -34.63529,11.143529"
     id="path851" />
  <path
     style="fill:none;stroke:#000000;stroke-width:1px;stroke-linecap:butt;stroke-linejoin:miter;stroke-opacity:1"
     d="m 80.955294,128 c 38.249416,-6.62588 67.463526,-15.36 67.463526,-15.36 l 20.17883,-5.42118"
     id="path859" />
  <path
     style="fill:none;stroke:#000000;stroke-width:1px;stroke-linecap:butt;stroke-linejoin:miter;stroke-opacity:1"
     d="m 118.90353,55.115294 c 9.03529,9.938824 9.63765,18.974118 9.63765,18.974118 l -7.22824,98.484708 0.60235,50.29647 7.52942,14.45647"
     id="path861" />
  <path
     style="fill:none;stroke:#000000;stroke-width:1px;stroke-linecap:butt;stroke-linejoin:miter;stroke-opacity:1"
     d="m 69.209412,132.81882 c 10.541176,9.63765 11.444706,16.86589 11.444706,16.86589 l -4.818824,46.08 -9.035294,22.58823 -11.444706,10.24 -18.672941,8.43294"
     id="path863" />
  <path
     style="fill:none;stroke:#000000;stroke-width:1px;stroke-linecap:butt;stroke-linejoin:miter;stroke-opacity:1"
     d="m 81,159.47244 21.64,-6.17362 14.45647,-2.71058"
     id="path865" />
  <path
     style="fill:none;stroke:#000000;stroke-width:1px;stroke-linecap:butt;stroke-linejoin:miter;stroke-opacity:1"
     d="m 105.95294,129.80706 c -1.2047,12.95059 -4.51765,28.31059 -4.51765,28.31059"
     id="path867" />
  <path
     style="fill:none;stroke:#000000;stroke-width:1px;stroke-linecap:butt;stroke-linejoin:miter;stroke-opacity:1"
     d="m 80,184.44275 24.14588,-4.03804 9.63765,-1.50589"
     id="path869" />
  <path
     style="fill:none;stroke:#000000;stroke-width:1px;stroke-linecap:butt;stroke-linejoin:miter;stroke-opacity:1"
     d="m 103.54353,182.21176 c -2.40941,30.11765 -3.91529,32.52706 -3.91529,32.52706 l -10.842358,6.32471"
     id="path871" />
  <path
     style="fill:none;stroke:#000000;stroke-width:1px;stroke-linecap:butt;stroke-linejoin:miter;stroke-opacity:1"
     d="m 140.28706,120.16941 7.83059,10.24 0.88235,3.16788 -16.54353,17.31212"
     id="path873" />
  <path
     style="fill:none;stroke:#000000;stroke-width:1px;stroke-linecap:butt;stroke-linejoin:miter;stroke-opacity:1"
     d="M 130.04706,146.67294 C 143.29882,145.76941 176,138.20142 176,138.20142"
     id="path875" />
  <path
     style="fill:none;stroke:#000000;stroke-width:1px;stroke-linecap:butt;stroke-linejoin:miter;stroke-opacity:1"
     d="m 136.07059,174.08 c 27.40706,-5.12 44.87529,-8.43294 44.87529,-8.43294"
     id="path877" />
  <path
     style="fill:none;stroke:#000000;stroke-width:1px;stroke-linecap:butt;stroke-linejoin:miter;stroke-opacity:1"
     d="m 145.40706,168.65882 c -2.71059,37.64706 -1.20471,48.48942 -1.20471,48.48942"
     id="path879" />
  <path
     style="fill:none;stroke:#000000;stroke-width:1px;stroke-linecap:butt;stroke-linejoin:miter;stroke-opacity:1"
     d="m 176.42824,111.13412 c -2.71059,41.26117 -0.39059,47.91037 -2.40942,50.89882 C 172,165.02139 179.44,221.06353 179.44,221.06353 l 15.36,17.46823"
     id="path881" />
  <path
     style="fill:none;stroke:#000000;stroke-width:1px;stroke-linecap:butt;stroke-linejoin:miter;stroke-opacity:1"
     d="m 88.484706,170.16471 c 20.480004,-3.31295 59.934114,-12.95059 59.934114,-12.95059 l 10.24,-0.90353"
     id="path883" />
</svg>
