<?xml version="1.0" encoding="utf-8"?>

<svg xmlns="http://www.w3.org/2000/svg" xmlns:xlink="http://www.w3.org/1999/xlink" 
  height="512" width="512" viewBox="0 0 512 512">

  <image href="https://s0.gifyu.com/images/hello_kitty_Hello_Kitty_Head_ClipArt_in_PNG_File.png" height="512" width="512" />

  <rect width="512" height="512" stroke="red" fill="rgba(255,255,255,0.95)" opacity="0.95" ></rect>

  <text x="2" y="12" font-size="12" text-anchor="start" fill="red">0</text>
  <path d="M256  64 H0 H512" stroke="lightgray" fill="white"></path>
  <text x="2" y="68" font-size="12" text-anchor="start" fill="red">64</text>
  <path d="M256 128 H0 H512" stroke="lightgray" fill="white"></path>
  <text x="2" y="132" font-size="12" text-anchor="start" fill="red">128</text>
  <path d="M256 192 H0 H512" stroke="lightgray" fill="white"></path>
  <text x="2" y="196" font-size="12" text-anchor="start" fill="red">192</text>
  <path d="M256 256 H0 H512" stroke="lightgray" fill="white"></path>
  <text x="2" y="260" font-size="12" text-anchor="start" fill="red">256</text>
  <path d="M256 320 H0 H512" stroke="lightgray" fill="white"></path>
  <text x="2" y="324" font-size="12" text-anchor="start" fill="red">320</text>
  <path d="M256 384 H0 H512" stroke="lightgray" fill="white"></path>
  <text x="2" y="388" font-size="12" text-anchor="start" fill="red">384</text>
  <path d="M256 448 H0 H512" stroke="lightgray" fill="white"></path>
  <text x="2" y="452" font-size="12" text-anchor="start" fill="red">448</text>
  <text x="2" y="510" font-size="12" text-anchor="start" fill="red">512</text>
  
  <path d="M64  0 V512" stroke="lightgray" fill="white"></path>
  <text x="58" y="12" font-size="12" text-anchor="start" fill="red">64</text>
  <path d="M128  0 V512" stroke="lightgray" fill="white"></path>
  <text x="118" y="12" font-size="12" text-anchor="start" fill="red">128</text>
  <path d="M195  0 V512" stroke="lightgray" fill="white"></path>
  <text x="186" y="12" font-size="12" text-anchor="start" fill="red">192</text>
  <path d="M256  0 V512" stroke="lightgray" fill="white"></path>
  <text x="246" y="12" font-size="12" text-anchor="start" fill="red">256</text>
  <path d="M320  0 V512" stroke="lightgray" fill="white"></path>
  <text x="310" y="12" font-size="12" text-anchor="start" fill="red">320</text>
  <path d="M384  0 V512" stroke="lightgray" fill="white"></path>
  <text x="374" y="12" font-size="12" text-anchor="start" fill="red">384</text>
  <path d="M448  0 V512" stroke="lightgray" fill="white"></path>
  <text x="438" y="12" font-size="12" text-anchor="start" fill="red">448</text>
  <text x="492" y="12" font-size="12" text-anchor="start" fill="red">512</text>

  <path d="M256 256 V270 V242 M256 256 H270 H242" stroke="black" fill="white"></path>

  <text x="254" y="250" font-size="16" text-anchor="middle" fill="red">(256, 256)</text>

  

  //眼睛

  <path d="M168 310 A4 6, 0, 0, 0, 141 310"  stroke="#000000" fill="black"  />  
  <path d="M168 309 A4 6, 0, 0, 1, 141 310"  stroke="#000000" fill="black"  />  


  <path d="M367 310 A4 6, 0, 0, 0, 340 310"  stroke="#000000" fill="black"  />  
  <path d="M367 309 A4 6, 0, 0, 1, 340 310"  stroke="#000000" fill="black"  />  
  //鼻子

  <path d="M280 340 A6 4, 0, 0, 0, 235 340"  stroke="#000000" fill="yellow"  />  
  <path d="M280 340 A6 4, 0, 0, 1, 235 340"  stroke="#000000" fill="yellow"  />  

  //臉
  <path d="M456 256 A200 140, 0, 0, 0, 56 256 M56 256 A200 170, 1, 0, 0, 456 256 M429 183 A40 55, 30, 0, 0, 346 129 M165 125 A40 45, -40, 0, 0, 85 185" stroke-width="10" stroke="#000000" fill="none" />


   
  //鬍鬚
  <path d="M10 292 Q50 285, 95 288" stroke="black" stroke-width="7" fill="none" />
  <path d="M36 339 Q64 335, 95 325" stroke="black" stroke-width="7" fill="none" />
  <path d="M50 390 Q70 380, 124 355" stroke="black" stroke-width="7" fill="none" />

  //鬍鬚
  <path d="M420 283 A30 5, 0, 0, 1, 500 280"  stroke-width="7" stroke="#000000" fill="none"   />  
  
  <path d="M428 323 A30 5, 3, 0, 1, 490 325"  stroke-width="7" stroke="#000000" fill="none"   /> 
 
  <path d="M405 355 A15 5, 20 , 0, 1, 484 384"  stroke-width="7" stroke="#000000" fill="none"   />
/>
  

 


</svg>
    