<?xml version="1.0" standalone="no"?>
<!DOCTYPE svg PUBLIC "-//W3C//DTD SVG 1.1//EN" "http://www.w3.org/Graphics/SVG/1.1/DTD/svg11.dtd" >
<svg xmlns="http://www.w3.org/2000/svg" xmlns:xlink="http://www.w3.org/1999/xlink" version="1.1" viewBox="-10 0 266 256">
   <path fill="currentColor"
d="M158.28 35.4395q14.4004 5.04102 12.2393 15.1211q-0.719727 9.35938 -1.43945 18.7197q2.87988 -0.719727 9.35938 -1.44043q4.32129 -0.719727 5.76074 -1.43945q1.43945 -5.04004 9.36035 -6.48047q4.31934 0 18 6.48047q2.15918 2.16016 -0.720703 4.31934
q-2.15918 1.44043 -5.75977 0q-7.2002 -5.04004 -36 2.16016q-2.16016 18 -5.04004 31.6807q0.720703 0 3.59961 -0.720703q4.32031 -1.43945 5.76074 -3.60059q0.719727 -2.15918 6.47949 -2.15918q11.5205 1.43945 15.1201 2.87988q1.43945 2.16016 0.719727 2.87988
q-0.719727 0.720703 -2.87988 0.720703q-7.91992 -0.720703 -17.2793 1.43945q-7.9209 1.43945 -37.4404 10.0801q-8.63965 2.87988 -12.96 0q-1.44043 -0.719727 -1.44043 -1.44043q0.719727 -0.719727 2.87988 -1.43945q15.8398 -1.43945 30.2402 -7.2002
q-0.719727 -2.16016 0.720703 -5.04004q1.43945 -2.16016 2.15918 -7.91992q0.719727 -5.04004 1.44043 -18.7207q-5.04004 0.720703 -11.5205 3.60059q-8.63965 2.16016 -18.7197 4.31934q-9.35938 2.16113 -16.5596 -0.719727q-2.16016 -0.719727 -2.16016 -1.43945
q0.719727 -0.719727 3.59961 -0.719727q6.48047 0 12.9609 -0.720703q0.719727 0 2.15918 -0.719727q7.2002 -0.719727 15.8408 -2.87988q9.35938 -2.16016 14.3994 -3.60059q0 -18 -0.720703 -23.0391q-0.719727 -5.76074 -4.31934 -11.5205
q-2.16016 -1.44043 -1.43945 -1.44043q0.719727 -0.719727 3.59961 0zM214.439 110.32q17.2803 2.87988 26.6406 7.19922q5.04004 2.88086 3.60059 7.2002q-2.16113 5.76074 -7.91992 1.44043q-12.2412 -10.7998 -23.041 -14.3994q-3.59961 -1.44043 0.719727 -1.44043z
M156.84 120.4q2.16016 7.19922 9.36035 7.19922q3.59961 0.720703 9.36035 5.04004q1.43945 4.32031 -5.04102 5.76074q-13.6797 -5.76074 -16.5596 -17.2803q0 -1.43945 0.720703 -2.16016q1.43945 0 2.15918 1.44043zM191.4 135.52q-5.04004 -2.15918 0.719727 -1.43945
q20.1602 7.91992 33.1191 21.6006q10.0811 10.7998 16.5605 15.1191q2.16016 1.43945 1.43945 2.88086q0 1.43945 -2.15918 2.15918q-32.3994 9.36035 -65.5195 0.720703q-31.6807 -9.36035 -41.7607 -32.4004q-1.43945 -1.44043 -0.719727 -2.16016t2.87988 0.719727
q31.6797 41.041 89.2793 33.1201q2.88086 0 2.88086 -0.719727q0.719727 -1.43945 -0.719727 -3.60059q-15.8398 -25.1992 -36 -36zM120.84 138.4q-3.60059 7.91992 -4.32031 15.1191q-0.719727 7.91992 2.88086 12.2412q2.16016 3.59961 -4.32031 4.31934
q-6.48047 1.43945 -5.75977 -14.3994q-0.720703 -3.60059 2.87988 -7.2002q2.87988 -1.44043 3.59961 -5.04102q0.719727 -2.15918 3.60059 -5.75879q2.87988 -2.16113 1.43945 0.719727zM72 155q5 -4 18 4q3 3 3 4t-3 1q-9 4 -16 15q8 -1 10 2t1 3q0 1 -2 0q-15 3 -28 7
q1 5 3 7l1 3q0 1 -4 1q-3 1 -5 -1q-1 -1 -1 -2q-5 -7 -5 -14q-3 -11 -3 -15q-2 -3 3 2q2 -4 9 -9q9 -3 19 -8zM72 101q4 0 11 1q2 1 2 2t-2 1q-24 8 -42 28q-3 3 -3 5q1 2 4 1q2 0 3 -1q10 -2 18 -6q5 -2 7 -6q1 -2 5 -1q3 1 8 2q2 1 2 3t-2 2q-11 4 -20 9q-4 4 -7 5
q-6 4 -1 -1q3 -3 5 -6q3 -4 -2 -2q-11 3 -18 7q-5 2 -4 -2q-3 -6 6 -14l10 -10v-2t-2 -1q-4 2 -7 1q-5 0 0 -2q5 -1 13 -4q4 -2 7 -3t4 -4q1 -2 5 -2zM83 71q6 -1 14 0h5q3 5 -1 6q-10 -1 -28 7q-8 4 -1 -2q2 -2 1 -3h-3q-24 9 -43 12q-14 3 -23 0q-5 -1 0 -2q22 -1 74 -16
q3 -1 5 -2zM74 157q-11 6 -19 9q-9 4 -9 9q2 6 7 12l3 -1q5 -2 7 -2q0 -2 3 -4q6 -6 12 -21q0 -1 -1 -2h-3zM45 22q-3 -3 1 -1q9 5 17 6q16 4 23 15q-1 6 -7 3q-5 -3 -9 -2q-2 1 -4 1q-5 2 -8 1q-3 1 -4 0q0 -1 3 -4q6 -4 3 -7q-10 -5 -15 -12z" />
</svg>
