<?xml version="1.0" standalone="no"?>
<!DOCTYPE svg PUBLIC "-//W3C//DTD SVG 1.1//EN" "http://www.w3.org/Graphics/SVG/1.1/DTD/svg11.dtd" >
<svg xmlns="http://www.w3.org/2000/svg" xmlns:xlink="http://www.w3.org/1999/xlink" version="1.1" viewBox="-10 0 266 256">
  <g transform="matrix(1 0 0 -1 0 204)">
   <path fill="currentColor"
d="M111 204q4 -3 9 -6q3 -3 0 -6q-8 -12 5 -55l24 4q11 1 23 4q3 0 5 3q1 2 8 1q5 -2 16 -6q2 -2 1 -5q-2 -3 -5 -1q-11 6 -23 5t-49 -9q9 -37 36 -80q15 22 17 32q-1 3 0 3q1 1 3 -1q6 -9 2 -14q-7 -10 -18 -27q27 -39 60 -59q2 -1 3 0t2 3q-2 8 -1 33q0 5 1 6q1 0 2 -5
q3 -31 9 -41q1 -4 0 -6q-1 -1 -4 0q-41 19 -75 65q-19 -21 -47 -34q-4 -2 -6 -2q-1 1 3 3q30 18 46 39q-25 42 -38 84q-2 -1 -5 -2q-28 -7 -43 -12q-8 -2 -5 -8q9 -86 -42 -115q-3 -1 -4 0q0 2 3 3q49 33 38 113q-1 0 -1 1q-1 8 -5 7q-3 0 -7 -1t-6 0q-8 3 -3 13q0 1 1 2
q2 2 4 6q1 5 2 0q-2 -16 2 -16q10 1 16 0q3 -1 14 1q10 3 40 11q-1 1 -1 3q-6 28 -7 47q-1 2 -1 3q-1 9 -2 13q-2 2 -1 3t4 0zM159 198q24 -6 33 -17q0 -4 -4 -5q-3 -3 -15 9l-15 12q-4 2 1 1zM123 86q3 -2 2 -5q0 -2 -3 -3q-2 0 -4 -7q-10 -31 -30 -44q-8 -3 -8 5
q0 4 -4 10q-3 4 1 2q11 -14 17 -7q19 18 16 41q-1 7 -6 8q-8 1 -16 -4q-4 -3 -15 -1q-2 0 -2 1t2 2q12 2 20 6q7 2 15 1q6 -1 15 -5z" />
  </g>

</svg>
