<?xml version="1.0" encoding="UTF-8" standalone="no"?>
<svg
   xmlns:dc="http://purl.org/dc/elements/1.1/"
   xmlns:cc="http://creativecommons.org/ns#"
   xmlns:rdf="http://www.w3.org/1999/02/22-rdf-syntax-ns#"
   xmlns:svg="http://www.w3.org/2000/svg"
   xmlns="http://www.w3.org/2000/svg"
   version="1.1"
   viewBox="-10 0 266 256"
   id="svg4">
  <metadata
     id="metadata10">
    <rdf:RDF>
      <cc:Work
         rdf:about="">
        <dc:format>image/svg+xml</dc:format>
        <dc:type
           rdf:resource="http://purl.org/dc/dcmitype/StillImage" />
        <dc:title></dc:title>
      </cc:Work>
    </rdf:RDF>
  </metadata>
  <defs
     id="defs8" />
  <path
     fill="currentColor"
     d="M111 0q4 3 9 6q3 3 0 6q-8 12 5 55l24 -4q11 -1 23 -4q3 0 5 -3q1 -2 8 -1q5 2 16 6q2 2 1 5q-2 3 -5 1q-11 -6 -23 -5t-49 9q9 37 36 80q15 -22 17 -32q-1 -3 0 -3q1 -1 3 1q6 9 2 14q-7 10 -18 27q27 39 60 59q2 1 3 0t2 -3q-2 -8 -1 -33q0 -5 1 -6q1 0 2 5q3 31 9 41 q1 4 0 6q-1 1 -4 0q-41 -19 -75 -65q-19 21 -47 34q-4 2 -6 2q-1 -1 3 -3q30 -18 46 -39q-25 -42 -38 -84q-2 1 -5 2q-28 7 -43 12q-8 2 -5 8q9 86 -42 115q-3 1 -4 0q0 -2 3 -3q49 -33 38 -113q-1 0 -1 -1q-1 -8 -5 -7q-3 0 -7 1t-6 0q-8 -3 -3 -13q0 -1 1 -2q2 -2 4 -6 q1 -5 2 0q-2 16 2 16q10 -1 16 0q3 1 14 -1q10 -3 40 -11q-1 -1 -1 -3q-6 -28 -7 -47q-1 -2 -1 -3q-1 -9 -2 -13q-2 -2 -1 -3t4 0zM159 6q24 6 33 17q0 4 -4 5q-3 3 -15 -9l-15 -12q-4 -2 1 -1zM123 118q3 2 2 5q0 2 -3 3q-2 0 -4 7q-10 31 -30 44q-8 3 -8 -5q0 -4 -4 -10 q-3 -4 1 -2q11 14 17 7q19 -18 16 -41q-1 -7 -6 -8q-8 -1 -16 4q-4 3 -15 1q-2 0 -2 -1t2 -2q12 -2 20 -6q7 -2 15 -1q6 1 15 5z"
     id="path2"
     style="fill:none;stroke:#fc0000;stroke-opacity:1" />
  <path
     style="fill:none;stroke:#000000;stroke-width:1px;stroke-linecap:butt;stroke-linejoin:miter;stroke-opacity:1"
     d="m 47.223529,59.934118 c -4.818823,18.672941 -6.023529,15.36 -4.818823,18.672941 1.204706,3.312941 8.131765,5.12 8.131765,5.12 L 54.150588,81.92 67.101176,84.630588 122.21647,69.571765 182.15059,58.428235 205.34118,66.56"
     id="path835" />
  <path
     style="fill:none;stroke:#000000;stroke-width:1px;stroke-linecap:butt;stroke-linejoin:miter;stroke-opacity:1"
     d="m 65,81 c -0.609412,9.955294 -0.0071,21.09882 -0.0071,21.09882 l 0.90353,10.24 0.301176,11.44471 -1.204706,16.86588 -5.722353,25.90118 -15.36,25.90117 -25.298823,18.97412"
     id="path837" />
  <path
     style="fill:none;stroke:#000000;stroke-width:1px;stroke-linecap:butt;stroke-linejoin:miter;stroke-opacity:1"
     d="m 66.197606,123.78353 c 34.936514,-9.03529 39.152984,-9.33647 39.152984,-9.33647 l 15.05882,8.43294 -9.03529,21.68471 -12.64941,22.88941 -18.672945,10.84235 3.312941,-7.52941 -9.938824,-13.85412"
     id="path839" />
  <path
     style="fill:none;stroke:#000000;stroke-width:1px;stroke-linecap:butt;stroke-linejoin:miter;stroke-opacity:1"
     d="m 117.39765,1.5058824 c -3.61412,14.4564706 -2.40941,36.7435296 -2.40941,37.9482356 0,1.204706 17.76941,64.150592 17.76941,64.150592 l 28.91294,54.81411 32.52706,37.94824 c 0,0 24.39529,18.07059 24.69647,19.27529 C 219.19529,216.84706 241,227 241,227 l -7.95059,-14.06824 -3.61412,-44.57411"
     id="path841" />
  <path
     style="fill:none;stroke:#000000;stroke-width:1px;stroke-linecap:butt;stroke-linejoin:miter;stroke-opacity:1"
     d="m 153.23765,5.12 12.64941,5.421176 18.97412,12.047059 7.52941,6.625883"
     id="path843" />
  <path
     style="fill:none;stroke:#000000;stroke-width:1px;stroke-linecap:butt;stroke-linejoin:miter;stroke-opacity:1"
     d="m 185.16235,114.44706 -11.4447,24.09412 -21.08236,29.51529 -22.28705,18.07059 -28.31059,15.66118"
     id="path845" />
</svg>
