<?xml version="1.0" encoding="UTF-8" standalone="no"?>
<svg
   xmlns:dc="http://purl.org/dc/elements/1.1/"
   xmlns:cc="http://creativecommons.org/ns#"
   xmlns:rdf="http://www.w3.org/1999/02/22-rdf-syntax-ns#"
   xmlns:svg="http://www.w3.org/2000/svg"
   xmlns="http://www.w3.org/2000/svg"
   xmlns:sodipodi="http://sodipodi.sourceforge.net/DTD/sodipodi-0.dtd"
   xmlns:inkscape="http://www.inkscape.org/namespaces/inkscape"
   version="1.1"
   viewBox="-10 0 266 256"
   id="svg4"
   sodipodi:docname="chi_news.svg"
   inkscape:version="1.0.2-2 (e86c870879, 2021-01-15)">
  <metadata
     id="metadata10">
    <rdf:RDF>
      <cc:Work
         rdf:about="">
        <dc:format>image/svg+xml</dc:format>
        <dc:type
           rdf:resource="http://purl.org/dc/dcmitype/StillImage" />
        <dc:title></dc:title>
      </cc:Work>
    </rdf:RDF>
  </metadata>
  <defs
     id="defs8" />
  <sodipodi:namedview
     pagecolor="#ffffff"
     bordercolor="#666666"
     borderopacity="1"
     objecttolerance="10"
     gridtolerance="10"
     guidetolerance="10"
     inkscape:pageopacity="0"
     inkscape:pageshadow="2"
     inkscape:window-width="1920"
     inkscape:window-height="1017"
     id="namedview6"
     showgrid="false"
     inkscape:zoom="3.3203125"
     inkscape:cx="133"
     inkscape:cy="128"
     inkscape:window-x="-8"
     inkscape:window-y="-8"
     inkscape:window-maximized="1"
     inkscape:current-layer="svg4" />
  <path
     fill="currentColor"
     d="M158.28 35.4395q14.4004 5.04102 12.2393 15.1211q-0.719727 9.35938 -1.43945 18.7197q2.87988 -0.719727 9.35938 -1.44043q4.32129 -0.719727 5.76074 -1.43945q1.43945 -5.04004 9.36035 -6.48047q4.31934 0 18 6.48047q2.15918 2.16016 -0.720703 4.31934 q-2.15918 1.44043 -5.75977 0q-7.2002 -5.04004 -36 2.16016q-2.16016 18 -5.04004 31.6807q0.720703 0 3.59961 -0.720703q4.32031 -1.43945 5.76074 -3.60059q0.719727 -2.15918 6.47949 -2.15918q11.5205 1.43945 15.1201 2.87988q1.43945 2.16016 0.719727 2.87988 q-0.719727 0.720703 -2.87988 0.720703q-7.91992 -0.720703 -17.2793 1.43945q-7.9209 1.43945 -37.4404 10.0801q-8.63965 2.87988 -12.96 0q-1.44043 -0.719727 -1.44043 -1.44043q0.719727 -0.719727 2.87988 -1.43945q15.8398 -1.43945 30.2402 -7.2002 q-0.719727 -2.16016 0.720703 -5.04004q1.43945 -2.16016 2.15918 -7.91992q0.719727 -5.04004 1.44043 -18.7207q-5.04004 0.720703 -11.5205 3.60059q-8.63965 2.16016 -18.7197 4.31934q-9.35938 2.16113 -16.5596 -0.719727q-2.16016 -0.719727 -2.16016 -1.43945 q0.719727 -0.719727 3.59961 -0.719727q6.48047 0 12.9609 -0.720703q0.719727 0 2.15918 -0.719727q7.2002 -0.719727 15.8408 -2.87988q9.35938 -2.16016 14.3994 -3.60059q0 -18 -0.720703 -23.0391q-0.719727 -5.76074 -4.31934 -11.5205 q-2.16016 -1.44043 -1.43945 -1.44043q0.719727 -0.719727 3.59961 0zM214.439 110.32q17.2803 2.87988 26.6406 7.19922q5.04004 2.88086 3.60059 7.2002q-2.16113 5.76074 -7.91992 1.44043q-12.2412 -10.7998 -23.041 -14.3994q-3.59961 -1.44043 0.719727 -1.44043z M156.84 120.4q2.16016 7.19922 9.36035 7.19922q3.59961 0.720703 9.36035 5.04004q1.43945 4.32031 -5.04102 5.76074q-13.6797 -5.76074 -16.5596 -17.2803q0 -1.43945 0.720703 -2.16016q1.43945 0 2.15918 1.44043zM191.4 135.52q-5.04004 -2.15918 0.719727 -1.43945 q20.1602 7.91992 33.1191 21.6006q10.0811 10.7998 16.5605 15.1191q2.16016 1.43945 1.43945 2.88086q0 1.43945 -2.15918 2.15918q-32.3994 9.36035 -65.5195 0.720703q-31.6807 -9.36035 -41.7607 -32.4004q-1.43945 -1.44043 -0.719727 -2.16016t2.87988 0.719727 q31.6797 41.041 89.2793 33.1201q2.88086 0 2.88086 -0.719727q0.719727 -1.43945 -0.719727 -3.60059q-15.8398 -25.1992 -36 -36zM120.84 138.4q-3.60059 7.91992 -4.32031 15.1191q-0.719727 7.91992 2.88086 12.2412q2.16016 3.59961 -4.32031 4.31934 q-6.48047 1.43945 -5.75977 -14.3994q-0.720703 -3.60059 2.87988 -7.2002q2.87988 -1.44043 3.59961 -5.04102q0.719727 -2.15918 3.60059 -5.75879q2.87988 -2.16113 1.43945 0.719727zM72 155q5 -4 18 4q3 3 3 4t-3 1q-9 4 -16 15q8 -1 10 2t1 3q0 1 -2 0q-15 3 -28 7 q1 5 3 7l1 3q0 1 -4 1q-3 1 -5 -1q-1 -1 -1 -2q-5 -7 -5 -14q-3 -11 -3 -15q-2 -3 3 2q2 -4 9 -9q9 -3 19 -8zM72 101q4 0 11 1q2 1 2 2t-2 1q-24 8 -42 28q-3 3 -3 5q1 2 4 1q2 0 3 -1q10 -2 18 -6q5 -2 7 -6q1 -2 5 -1q3 1 8 2q2 1 2 3t-2 2q-11 4 -20 9q-4 4 -7 5 q-6 4 -1 -1q3 -3 5 -6q3 -4 -2 -2q-11 3 -18 7q-5 2 -4 -2q-3 -6 6 -14l10 -10v-2t-2 -1q-4 2 -7 1q-5 0 0 -2q5 -1 13 -4q4 -2 7 -3t4 -4q1 -2 5 -2zM83 71q6 -1 14 0h5q3 5 -1 6q-10 -1 -28 7q-8 4 -1 -2q2 -2 1 -3h-3q-24 9 -43 12q-14 3 -23 0q-5 -1 0 -2q22 -1 74 -16 q3 -1 5 -2zM74 157q-11 6 -19 9q-9 4 -9 9q2 6 7 12l3 -1q5 -2 7 -2q0 -2 3 -4q6 -6 12 -21q0 -1 -1 -2h-3zM45 22q-3 -3 1 -1q9 5 17 6q16 4 23 15q-1 6 -7 3q-5 -3 -9 -2q-2 1 -4 1q-5 2 -8 1q-3 1 -4 0q0 -1 3 -4q6 -4 3 -7q-10 -5 -15 -12z"
     id="path2"
     style="fill:none;stroke:#f60000;stroke-opacity:1" />
  <path
     style="fill:none;stroke:#000000;stroke-width:1px;stroke-linecap:butt;stroke-linejoin:miter;stroke-opacity:1"
     d="m 41.501176,18.672941 20.48,12.950588 L 77.04,49.392941"
     id="path835" />
  <path
     style="fill:none;stroke:#000000;stroke-width:1px;stroke-linecap:butt;stroke-linejoin:miter;stroke-opacity:1"
     d="M -2.7717647,92.461176 49.331765,83.727059 74.630588,76.197647 108.66353,73.788235"
     id="path837" />
  <path
     style="fill:none;stroke:#000000;stroke-width:1px;stroke-linecap:butt;stroke-linejoin:miter;stroke-opacity:1"
     d="m 35.176471,116.85647 43.670588,-12.95059 8.734117,-0.60235 -26.503529,9.03529 -5.421176,5.12 -18.070589,17.16706 -3.915294,10.54118 5.421177,-4.21647 L 87.28,128.60235 68.607059,135.52941 51.741176,149.08235"
     id="path839" />
  <path
     style="fill:none;stroke:#000000;stroke-width:1px;stroke-linecap:butt;stroke-linejoin:miter;stroke-opacity:1"
     d="M 41.2,165.04471 C 41,170 56.258824,205.10118 56.258824,205.10118"
     id="path841" />
  <path
     style="fill:none;stroke:#000000;stroke-width:1px;stroke-linecap:butt;stroke-linejoin:miter;stroke-opacity:1"
     d="M 38.489412,174.68235 58.367059,162.63529 77.943529,153.6 94.50824,163.23765 81.256471,163.84 66.498824,187.93412"
     id="path843" />
  <path
     style="fill:none;stroke:#000000;stroke-width:1px;stroke-linecap:butt;stroke-linejoin:miter;stroke-opacity:1"
     d="M 44.211765,191.84941 87.581176,181.00706"
     id="path845" />
  <path
     style="fill:none;stroke:#000000;stroke-width:1px;stroke-linecap:butt;stroke-linejoin:miter;stroke-opacity:1"
     d="M 108.36235,83.124706 138.78118,78.305882 194.8,65.054118 l 22.58824,5.421176"
     id="path847" />
  <path
     style="fill:none;stroke:#000000;stroke-width:1px;stroke-linecap:butt;stroke-linejoin:miter;stroke-opacity:1"
     d="m 162.57412,32.527059 2.40941,53.910588 -5.12,27.105883"
     id="path849" />
  <path
     style="fill:none;stroke:#000000;stroke-width:1px;stroke-linecap:butt;stroke-linejoin:miter;stroke-opacity:1"
     d="M 119.80706,116.25412 181.84941,101.79765 200.82353,102.4"
     id="path851" />
  <path
     style="fill:none;stroke:#000000;stroke-width:1px;stroke-linecap:butt;stroke-linejoin:miter;stroke-opacity:1"
     d="m 121.61412,133.72235 -9.33647,23.79294 2.80259,12.56435 0.81152,4.60271"
     id="path853" />
  <path
     style="fill:none;stroke:#000000;stroke-width:1px;stroke-linecap:butt;stroke-linejoin:miter;stroke-opacity:1"
     d="m 131.55294,138.54118 c 0,0 10.84235,14.75764 11.14353,15.96235 0.30118,1.20471 18.37177,13.25176 18.37177,13.25176 l 12.04705,6.92706 24.69647,4.21647 21.38353,-0.30117 18.67295,-4.51765 5.37054,-0.39889 -20.12819,-13.45523 -17.76941,-18.37176 -18.97412,-9.93883"
     id="path855" />
  <path
     style="fill:none;stroke:#000000;stroke-width:1px;stroke-linecap:butt;stroke-linejoin:miter;stroke-opacity:1"
     d="m 155.04471,115.65176 c -0.36393,3.30778 2.10823,9.93883 2.10823,9.93883 l 18.97412,12.95059"
     id="path857" />
  <path
     style="fill:none;stroke:#000000;stroke-width:1px;stroke-linecap:butt;stroke-linejoin:miter;stroke-opacity:1"
     d="m 209.55765,109.92941 25.29882,7.83059 10.84235,10.84235"
     id="path859" />
</svg>
