<?xml version="1.0" encoding="UTF-8" standalone="no"?>
<svg
   xmlns:dc="http://purl.org/dc/elements/1.1/"
   xmlns:cc="http://creativecommons.org/ns#"
   xmlns:rdf="http://www.w3.org/1999/02/22-rdf-syntax-ns#"
   xmlns:svg="http://www.w3.org/2000/svg"
   xmlns="http://www.w3.org/2000/svg"
   xmlns:sodipodi="http://sodipodi.sourceforge.net/DTD/sodipodi-0.dtd"
   xmlns:inkscape="http://www.inkscape.org/namespaces/inkscape"
   version="1.1"
   viewBox="-10 0 266 256"
   id="svg4"
   sodipodi:docname="xiao_news.svg"
   inkscape:version="1.0.2-2 (e86c870879, 2021-01-15)">
  <metadata
     id="metadata10">
    <rdf:RDF>
      <cc:Work
         rdf:about="">
        <dc:format>image/svg+xml</dc:format>
        <dc:type
           rdf:resource="http://purl.org/dc/dcmitype/StillImage" />
        <dc:title></dc:title>
      </cc:Work>
    </rdf:RDF>
  </metadata>
  <defs
     id="defs8" />
  <sodipodi:namedview
     pagecolor="#ffffff"
     bordercolor="#666666"
     borderopacity="1"
     objecttolerance="10"
     gridtolerance="10"
     guidetolerance="10"
     inkscape:pageopacity="0"
     inkscape:pageshadow="2"
     inkscape:window-width="1920"
     inkscape:window-height="1017"
     id="namedview6"
     showgrid="false"
     inkscape:zoom="3.3203125"
     inkscape:cx="133"
     inkscape:cy="128"
     inkscape:window-x="-8"
     inkscape:window-y="-8"
     inkscape:window-maximized="1"
     inkscape:current-layer="svg4" />
  <path
     fill="currentColor"
     d="M94 19q12 9 16 14q4 -1 13 -3q12 -3 25 -7q16 -21 11 -32q-1 -2 0 -2t4 1q12 9 8 14q-2 3 -5 9q-2 3 -3 6q13 -3 17 -6q3 -2 7 -2q9 2 15 3q2 1 1 4q0 2 -2 1q-9 -1 -17 1l-9 3q-11 2 -16 3q-16 18 -28 25q1 3 1 9q5 0 11 -1q9 -2 12 -2q7 -1 10 0q0 2 5 5q4 3 5 4 q1 2 1 4q-1 2 -3 1q-6 1 -9 5q38 -5 42 -8q4 -2 8 -1q7 3 15 5q1 1 1 2q-1 4 -11 3q-11 -1 -35 8q-7 2 -2 -2q9 -3 14 -6q4 -3 -1 -2q-18 4 -34 5q-14 16 -34 23v4q16 -4 15 -8q0 -1 2 -2l18 2q2 0 2 1q0 2 -9 4q-10 2 -29 10q0 33 -1 40q9 -1 15 -3q0 -4 6 -4q1 1 2 1h6 q2 1 1 3q0 2 -2 2q-7 0 -28 5q-2 17 -2 28q0 12 1 18q-1 16 4 26q2 2 -2 4q-5 2 -6 -4q-4 -11 -4 -19q0 -2 2 -4q1 -1 2 -1v-26v-21q-6 2 -16 5q-6 2 -8 2q-3 2 -3 1l1 -5l1 -1q1 0 2 -1q2 1 6 0q2 0 3 -1q7 -1 15 -5v-13t1 -26q-12 5 -9 1q2 -1 -2 -1q-10 3 -24 4 q-4 0 -1 -2q15 -1 36 -9q1 -2 1 -4q-3 1 -6 1h-1q-3 -1 0 -2q1 1 3 -1q2 -1 4 -1v-7t1 -8q-29 5 -60 14q-15 6 -27 1q-4 0 0 -1q6 1 18 -2l4 -2q22 -5 58 -13q4 -1 7 -2q-1 -6 1 -13q-2 1 -5 1q-13 3 -18 1q-3 0 1 -2q4 0 12 -3q6 -2 10 -3v-8q-3 2 -6 3q-6 3 -2 -1 q1 -1 4 -3q2 -1 4 -3q0 -1 -2 -3v-2q-1 -2 1 -1l2 2t3 1q5 -5 15 -18q-8 3 -31 10q2 3 4 8q1 8 -8 4q-3 0 -6 -8v-1q-16 4 -28 0q-2 -1 2 -2h3q6 -1 21 -5q-2 -7 -8 -15q-1 -2 1 -1zM142 210q-4 -10 -1 -13q2 -3 1 -21q0 -7 -4 -11q-4 -2 1 -1q1 0 3 1q2 0 7 -1q3 -1 5 -1 q1 -1 7 -3h3q4 -1 7 -1h1q-1 -5 -1 -12q-1 -7 -1 -13q-23 3 -30 7q-1 1 -3 1q-2 2 -4 -4q-1 -1 4 -2q0 -1 2 -3q1 -1 2 -3q7 -10 2 -16q-2 -3 1 -2t6 5q3 5 -1 8q-1 2 -3 3q-3 4 -4 7h3l12 -2q-1 -3 4 -3h9v-19q0 -5 -3 -10q-2 -2 1 -1q8 5 11 9q3 3 1 5q-1 1 -1 2 q-3 4 -3 14q1 0 1 1t-1 2q-1 21 2 57q0 7 1 10q2 14 9 25l1 1q4 5 5 9q1 2 -3 4q-4 1 -7 -8q-11 -17 -18 -21q-2 -2 -1 -6q1 -2 7 0h3t1 -1q-3 -22 -4 -36v-4h-1l-8 2q-5 1 -8 1q-4 2 -7 2q3 1 0 6q-2 3 -3 15q0 14 2 20q-2 2 -5 1zM98 178q-11 3 -18 2q-4 42 -34 54 q-8 2 -2 -2q33 -14 33 -80q2 -20 -5 -25q0 -1 2 -1q12 8 10 9q-3 7 -2 14q3 1 18 -5q3 -12 3 -14q0 -4 -2 -7q-3 -2 0 -1q0 1 1 1q3 1 6 3q4 2 0 7q-2 2 -3 7l-1 3h3h6q2 2 2 3q-13 2 -27 6q-2 1 -3 1q-3 1 -4 0q0 5 -1 13v11q6 0 19 -3q2 -3 5 -3q8 4 5 7q-3 2 -3 4 q-2 12 -2 20q0 9 -1 14q-1 2 -2 1q-4 -5 -5 -9q-2 -4 2 -4q3 0 3 -21q0 -6 -3 -5zM161 66q0 -3 -1 -4q0 -1 -4 -1q-11 1 -25 5q-1 4 -1 7q-1 4 -1 7q11 -1 26 -3q4 -6 6 -11zM152 81q-12 2 -23 4q0 2 -1 6v7q13 -5 24 -17z"
     id="path2"
     style="fill:none;stroke:#f50000;stroke-opacity:1" />
  <path
     style="fill:none;stroke:#000000;stroke-width:1px;stroke-linecap:butt;stroke-linejoin:miter;stroke-opacity:1"
     d="M 70.112941,40.96 H 92.4 l 94.87059,-26.202353 25.29882,1.204706"
     id="path835" />
  <path
     style="fill:none;stroke:#000000;stroke-width:1px;stroke-linecap:butt;stroke-linejoin:miter;stroke-opacity:1"
     d="m 89.689412,15.962353 14.456468,15.058823 9.93883,23.792942"
     id="path837" />
  <path
     style="fill:none;stroke:#000000;stroke-width:1px;stroke-linecap:butt;stroke-linejoin:miter;stroke-opacity:1"
     d="m 171.30824,-10.541176 -21.98589,43.369411 -15.05882,12.950589 -24.09412,15.36"
     id="path839" />
  <path
     style="fill:none;stroke:#000000;stroke-width:1px;stroke-linecap:butt;stroke-linejoin:miter;stroke-opacity:1"
     d="m 93.30353,69.270588 36.44235,-6.023529 29.81647,-4.517647 19.57647,13.854117 -13.85411,-4.818823 -12.64942,18.371765 -20.48,12.950588 -20.17882,6.324701"
     id="path841" />
  <path
     style="fill:none;stroke:#000000;stroke-width:1px;stroke-linecap:butt;stroke-linejoin:miter;stroke-opacity:1"
     d="m 30.96,101.79765 26.804706,-1.807062 53.910584,-13.854117 34.6353,-6.324706 69.57176,-9.336471 16.56471,7.228235 L 214.67765,72.884706 174.92235,87.04"
     id="path843" />
  <path
     style="fill:none;stroke:#000000;stroke-width:1px;stroke-linecap:butt;stroke-linejoin:miter;stroke-opacity:1"
     d="M 81.557647,119.26588 118,112.33882 171.00706,96.677647"
     id="path845" />
  <path
     style="fill:none;stroke:#000000;stroke-width:1px;stroke-linecap:butt;stroke-linejoin:miter;stroke-opacity:1"
     d="m 125.52941,39.755294 2.71059,19.576471 -1.50588,18.371764 -3.31294,63.548231 -1.80706,44.27295 0.90353,42.46588 6.92706,12.04706"
     id="path847" />
  <path
     style="fill:none;stroke:#000000;stroke-width:1px;stroke-linecap:butt;stroke-linejoin:miter;stroke-opacity:1"
     d="m 80.051765,123.78353 -0.301177,20.78118 -3.312941,45.47764 -6.927059,21.68471 c 0,0 -9.938823,11.74588 -10.24,12.95059 -0.301176,1.2047 -23.792941,13.55294 -23.792941,13.55294"
     id="path849" />
  <path
     style="fill:none;stroke:#000000;stroke-width:1px;stroke-linecap:butt;stroke-linejoin:miter;stroke-opacity:1"
     d="m 77,152 40.69882,-8.94118 -15.36,3.01177 4.21647,-24.69647"
     id="path851" />
  <path
     style="fill:none;stroke:#000000;stroke-width:1px;stroke-linecap:butt;stroke-linejoin:miter;stroke-opacity:1"
     d="m 71.92,180.70588 40.05647,-6.02353 -7.83059,4.21647 -6.3247,43.97177"
     id="path853" />
  <path
     style="fill:none;stroke:#000000;stroke-width:1px;stroke-linecap:butt;stroke-linejoin:miter;stroke-opacity:1"
     d="M 152.03294,112.03765 C 149,125 132.45647,143.36 132.45647,143.36 l 7.52941,-5.42118 24.99765,-6.02353 h 16.56471"
     id="path855" />
  <path
     style="fill:none;stroke:#000000;stroke-width:1px;stroke-linecap:butt;stroke-linejoin:miter;stroke-opacity:1"
     d="m 176.12706,99.990588 c 0,1.807062 -2.40941,55.717652 -2.40941,55.717652 l 4.51764,57.82588 15.05883,28.61176"
     id="path857" />
  <path
     style="fill:none;stroke:#000000;stroke-width:1px;stroke-linecap:butt;stroke-linejoin:miter;stroke-opacity:1"
     d="m 138.48,169.56235 28.31059,-7.52941 11.14353,-1.2047"
     id="path859" />
  <path
     style="fill:none;stroke:#000000;stroke-width:1px;stroke-linecap:butt;stroke-linejoin:miter;stroke-opacity:1"
     d="m 144.20235,162.03294 -0.90353,53.60941"
     id="path861" />
  <path
     style="fill:none;stroke:#000000;stroke-width:1px;stroke-linecap:butt;stroke-linejoin:miter;stroke-opacity:1"
     d="M 89.689412,166.55059 114.98824,158.72 158.05647,149.08235"
     id="path863" />
</svg>
