<?xml version="1.0" encoding="UTF-8" standalone="no"?>
<!DOCTYPE svg PUBLIC "-//W3C//DTD SVG 1.1//EN"
 "http://www.w3.org/Graphics/SVG/1.1/DTD/svg11.dtd">
<!-- Generated by graphviz version 2.38.0 (20140413.2041)
 -->
<!-- Title: Tree Pages: 1 -->
<svg width="1116pt" height="671pt"
 viewBox="0.00 0.00 1116.00 671.00" xmlns="http://www.w3.org/2000/svg" xmlns:xlink="http://www.w3.org/1999/xlink">
<g id="graph0" class="graph" transform="scale(1 1) rotate(0) translate(4 667)">
<title>Tree</title>
<polygon fill="white" stroke="none" points="-4,4 -4,-667 1112,-667 1112,4 -4,4"/>
<!-- 0 -->
<g id="node1" class="node"><title>0</title>
<path fill="#ffffff" stroke="black" d="M814,-663C814,-663 588,-663 588,-663 582,-663 576,-657 576,-651 576,-651 576,-592 576,-592 576,-586 582,-580 588,-580 588,-580 814,-580 814,-580 820,-580 826,-586 826,-592 826,-592 826,-651 826,-651 826,-657 820,-663 814,-663"/>
<text text-anchor="middle" x="701" y="-647.8" font-family="Helvetica,sans-Serif" font-size="14.00">從源主機到目標主機的數據的bytes &lt;= 28.5</text>
<text text-anchor="middle" x="701" y="-632.8" font-family="Helvetica,sans-Serif" font-size="14.00">gini = 0.5</text>
<text text-anchor="middle" x="701" y="-617.8" font-family="Helvetica,sans-Serif" font-size="14.00">samples = 350</text>
<text text-anchor="middle" x="701" y="-602.8" font-family="Helvetica,sans-Serif" font-size="14.00">value = [175, 175]</text>
<text text-anchor="middle" x="701" y="-587.8" font-family="Helvetica,sans-Serif" font-size="14.00">class = Normal</text>
</g>
<!-- 1 -->
<g id="node2" class="node"><title>1</title>
<path fill="#e88e4d" stroke="black" d="M677.5,-544C677.5,-544 444.5,-544 444.5,-544 438.5,-544 432.5,-538 432.5,-532 432.5,-532 432.5,-473 432.5,-473 432.5,-467 438.5,-461 444.5,-461 444.5,-461 677.5,-461 677.5,-461 683.5,-461 689.5,-467 689.5,-473 689.5,-473 689.5,-532 689.5,-532 689.5,-538 683.5,-544 677.5,-544"/>
<text text-anchor="middle" x="561" y="-528.8" font-family="Helvetica,sans-Serif" font-size="14.00">當前連接具有相同目標主機的連接數 &lt;= 224.0</text>
<text text-anchor="middle" x="561" y="-513.8" font-family="Helvetica,sans-Serif" font-size="14.00">gini = 0.169</text>
<text text-anchor="middle" x="561" y="-498.8" font-family="Helvetica,sans-Serif" font-size="14.00">samples = 183</text>
<text text-anchor="middle" x="561" y="-483.8" font-family="Helvetica,sans-Serif" font-size="14.00">value = [166, 17]</text>
<text text-anchor="middle" x="561" y="-468.8" font-family="Helvetica,sans-Serif" font-size="14.00">class = Normal</text>
</g>
<!-- 0&#45;&gt;1 -->
<g id="edge1" class="edge"><title>0&#45;&gt;1</title>
<path fill="none" stroke="black" d="M652.428,-579.907C641.134,-570.469 629.017,-560.343 617.418,-550.649"/>
<polygon fill="black" stroke="black" points="619.404,-547.748 609.486,-544.021 614.915,-553.119 619.404,-547.748"/>
<text text-anchor="middle" x="611.715" y="-565.221" font-family="Helvetica,sans-Serif" font-size="14.00">True</text>
</g>
<!-- 12 -->
<g id="node13" class="node"><title>12</title>
<path fill="#44a3e6" stroke="black" d="M926.5,-544C926.5,-544 757.5,-544 757.5,-544 751.5,-544 745.5,-538 745.5,-532 745.5,-532 745.5,-473 745.5,-473 745.5,-467 751.5,-461 757.5,-461 757.5,-461 926.5,-461 926.5,-461 932.5,-461 938.5,-467 938.5,-473 938.5,-473 938.5,-532 938.5,-532 938.5,-538 932.5,-544 926.5,-544"/>
<text text-anchor="middle" x="842" y="-528.8" font-family="Helvetica,sans-Serif" font-size="14.00">目標主機的網絡服務類型 &lt;= 22.0</text>
<text text-anchor="middle" x="842" y="-513.8" font-family="Helvetica,sans-Serif" font-size="14.00">gini = 0.102</text>
<text text-anchor="middle" x="842" y="-498.8" font-family="Helvetica,sans-Serif" font-size="14.00">samples = 167</text>
<text text-anchor="middle" x="842" y="-483.8" font-family="Helvetica,sans-Serif" font-size="14.00">value = [9, 158]</text>
<text text-anchor="middle" x="842" y="-468.8" font-family="Helvetica,sans-Serif" font-size="14.00">class = Anomaly</text>
</g>
<!-- 0&#45;&gt;12 -->
<g id="edge12" class="edge"><title>0&#45;&gt;12</title>
<path fill="none" stroke="black" d="M749.919,-579.907C761.293,-570.469 773.497,-560.343 785.179,-550.649"/>
<polygon fill="black" stroke="black" points="787.707,-553.1 793.167,-544.021 783.237,-547.713 787.707,-553.1"/>
<text text-anchor="middle" x="790.852" y="-565.213" font-family="Helvetica,sans-Serif" font-size="14.00">False</text>
</g>
<!-- 2 -->
<g id="node3" class="node"><title>2</title>
<path fill="#f8ddc9" stroke="black" d="M406,-425C406,-425 212,-425 212,-425 206,-425 200,-419 200,-413 200,-413 200,-354 200,-354 200,-348 206,-342 212,-342 212,-342 406,-342 406,-342 412,-342 418,-348 418,-354 418,-354 418,-413 418,-413 418,-419 412,-425 406,-425"/>
<text text-anchor="middle" x="309" y="-409.8" font-family="Helvetica,sans-Serif" font-size="14.00">當前連接具有相同服務的連接數 &lt;= 5.0</text>
<text text-anchor="middle" x="309" y="-394.8" font-family="Helvetica,sans-Serif" font-size="14.00">gini = 0.488</text>
<text text-anchor="middle" x="309" y="-379.8" font-family="Helvetica,sans-Serif" font-size="14.00">samples = 38</text>
<text text-anchor="middle" x="309" y="-364.8" font-family="Helvetica,sans-Serif" font-size="14.00">value = [22, 16]</text>
<text text-anchor="middle" x="309" y="-349.8" font-family="Helvetica,sans-Serif" font-size="14.00">class = Normal</text>
</g>
<!-- 1&#45;&gt;2 -->
<g id="edge2" class="edge"><title>1&#45;&gt;2</title>
<path fill="none" stroke="black" d="M473.57,-460.907C451.58,-450.698 427.856,-439.683 405.452,-429.282"/>
<polygon fill="black" stroke="black" points="406.82,-426.057 396.276,-425.021 403.872,-432.407 406.82,-426.057"/>
</g>
<!-- 9 -->
<g id="node10" class="node"><title>9</title>
<path fill="#e5823a" stroke="black" d="M674,-425C674,-425 448,-425 448,-425 442,-425 436,-419 436,-413 436,-413 436,-354 436,-354 436,-348 442,-342 448,-342 448,-342 674,-342 674,-342 680,-342 686,-348 686,-354 686,-354 686,-413 686,-413 686,-419 680,-425 674,-425"/>
<text text-anchor="middle" x="561" y="-409.8" font-family="Helvetica,sans-Serif" font-size="14.00">從目標主機到源主機的數據的bytes &lt;= 21.0</text>
<text text-anchor="middle" x="561" y="-394.8" font-family="Helvetica,sans-Serif" font-size="14.00">gini = 0.014</text>
<text text-anchor="middle" x="561" y="-379.8" font-family="Helvetica,sans-Serif" font-size="14.00">samples = 145</text>
<text text-anchor="middle" x="561" y="-364.8" font-family="Helvetica,sans-Serif" font-size="14.00">value = [144, 1]</text>
<text text-anchor="middle" x="561" y="-349.8" font-family="Helvetica,sans-Serif" font-size="14.00">class = Normal</text>
</g>
<!-- 1&#45;&gt;9 -->
<g id="edge9" class="edge"><title>1&#45;&gt;9</title>
<path fill="none" stroke="black" d="M561,-460.907C561,-452.649 561,-443.864 561,-435.302"/>
<polygon fill="black" stroke="black" points="564.5,-435.021 561,-425.021 557.5,-435.021 564.5,-435.021"/>
</g>
<!-- 3 -->
<g id="node4" class="node"><title>3</title>
<path fill="#83c2ef" stroke="black" d="M250,-306C250,-306 154,-306 154,-306 148,-306 142,-300 142,-294 142,-294 142,-235 142,-235 142,-229 148,-223 154,-223 154,-223 250,-223 250,-223 256,-223 262,-229 262,-235 262,-235 262,-294 262,-294 262,-300 256,-306 250,-306"/>
<text text-anchor="middle" x="202" y="-290.8" font-family="Helvetica,sans-Serif" font-size="14.00">協定類型 &lt;= 1.0</text>
<text text-anchor="middle" x="202" y="-275.8" font-family="Helvetica,sans-Serif" font-size="14.00">gini = 0.397</text>
<text text-anchor="middle" x="202" y="-260.8" font-family="Helvetica,sans-Serif" font-size="14.00">samples = 22</text>
<text text-anchor="middle" x="202" y="-245.8" font-family="Helvetica,sans-Serif" font-size="14.00">value = [6, 16]</text>
<text text-anchor="middle" x="202" y="-230.8" font-family="Helvetica,sans-Serif" font-size="14.00">class = Anomaly</text>
</g>
<!-- 2&#45;&gt;3 -->
<g id="edge3" class="edge"><title>2&#45;&gt;3</title>
<path fill="none" stroke="black" d="M271.877,-341.907C263.494,-332.742 254.518,-322.927 245.887,-313.489"/>
<polygon fill="black" stroke="black" points="248.389,-311.038 239.057,-306.021 243.223,-315.762 248.389,-311.038"/>
</g>
<!-- 8 -->
<g id="node9" class="node"><title>8</title>
<path fill="#e58139" stroke="black" d="M378,-298.5C378,-298.5 292,-298.5 292,-298.5 286,-298.5 280,-292.5 280,-286.5 280,-286.5 280,-242.5 280,-242.5 280,-236.5 286,-230.5 292,-230.5 292,-230.5 378,-230.5 378,-230.5 384,-230.5 390,-236.5 390,-242.5 390,-242.5 390,-286.5 390,-286.5 390,-292.5 384,-298.5 378,-298.5"/>
<text text-anchor="middle" x="335" y="-283.3" font-family="Helvetica,sans-Serif" font-size="14.00">gini = 0.0</text>
<text text-anchor="middle" x="335" y="-268.3" font-family="Helvetica,sans-Serif" font-size="14.00">samples = 16</text>
<text text-anchor="middle" x="335" y="-253.3" font-family="Helvetica,sans-Serif" font-size="14.00">value = [16, 0]</text>
<text text-anchor="middle" x="335" y="-238.3" font-family="Helvetica,sans-Serif" font-size="14.00">class = Normal</text>
</g>
<!-- 2&#45;&gt;8 -->
<g id="edge8" class="edge"><title>2&#45;&gt;8</title>
<path fill="none" stroke="black" d="M318.021,-341.907C320.424,-331.094 323.027,-319.376 325.458,-308.441"/>
<polygon fill="black" stroke="black" points="328.877,-309.188 327.63,-298.667 322.044,-307.67 328.877,-309.188"/>
</g>
<!-- 4 -->
<g id="node5" class="node"><title>4</title>
<path fill="#5eafea" stroke="black" d="M274,-187C274,-187 12,-187 12,-187 6,-187 0,-181 0,-175 0,-175 0,-116 0,-116 0,-110 6,-104 12,-104 12,-104 274,-104 274,-104 280,-104 286,-110 286,-116 286,-116 286,-175 286,-175 286,-181 280,-187 274,-187"/>
<text text-anchor="middle" x="143" y="-171.8" font-family="Helvetica,sans-Serif" font-size="14.00">當前連接具有相同目標主機相同服務的連接數 &lt;= 3.5</text>
<text text-anchor="middle" x="143" y="-156.8" font-family="Helvetica,sans-Serif" font-size="14.00">gini = 0.266</text>
<text text-anchor="middle" x="143" y="-141.8" font-family="Helvetica,sans-Serif" font-size="14.00">samples = 19</text>
<text text-anchor="middle" x="143" y="-126.8" font-family="Helvetica,sans-Serif" font-size="14.00">value = [3, 16]</text>
<text text-anchor="middle" x="143" y="-111.8" font-family="Helvetica,sans-Serif" font-size="14.00">class = Anomaly</text>
</g>
<!-- 3&#45;&gt;4 -->
<g id="edge4" class="edge"><title>3&#45;&gt;4</title>
<path fill="none" stroke="black" d="M181.53,-222.907C177.183,-214.286 172.546,-205.09 168.05,-196.175"/>
<polygon fill="black" stroke="black" points="171.061,-194.374 163.434,-187.021 164.811,-197.526 171.061,-194.374"/>
</g>
<!-- 7 -->
<g id="node8" class="node"><title>7</title>
<path fill="#e58139" stroke="black" d="M402,-179.5C402,-179.5 316,-179.5 316,-179.5 310,-179.5 304,-173.5 304,-167.5 304,-167.5 304,-123.5 304,-123.5 304,-117.5 310,-111.5 316,-111.5 316,-111.5 402,-111.5 402,-111.5 408,-111.5 414,-117.5 414,-123.5 414,-123.5 414,-167.5 414,-167.5 414,-173.5 408,-179.5 402,-179.5"/>
<text text-anchor="middle" x="359" y="-164.3" font-family="Helvetica,sans-Serif" font-size="14.00">gini = 0.0</text>
<text text-anchor="middle" x="359" y="-149.3" font-family="Helvetica,sans-Serif" font-size="14.00">samples = 3</text>
<text text-anchor="middle" x="359" y="-134.3" font-family="Helvetica,sans-Serif" font-size="14.00">value = [3, 0]</text>
<text text-anchor="middle" x="359" y="-119.3" font-family="Helvetica,sans-Serif" font-size="14.00">class = Normal</text>
</g>
<!-- 3&#45;&gt;7 -->
<g id="edge7" class="edge"><title>3&#45;&gt;7</title>
<path fill="none" stroke="black" d="M256.47,-222.907C272.61,-210.88 290.249,-197.735 306.276,-185.791"/>
<polygon fill="black" stroke="black" points="308.567,-188.449 314.494,-179.667 304.384,-182.836 308.567,-188.449"/>
</g>
<!-- 5 -->
<g id="node6" class="node"><title>5</title>
<path fill="#e58139" stroke="black" d="M120,-68C120,-68 34,-68 34,-68 28,-68 22,-62 22,-56 22,-56 22,-12 22,-12 22,-6 28,-0 34,-0 34,-0 120,-0 120,-0 126,-0 132,-6 132,-12 132,-12 132,-56 132,-56 132,-62 126,-68 120,-68"/>
<text text-anchor="middle" x="77" y="-52.8" font-family="Helvetica,sans-Serif" font-size="14.00">gini = 0.0</text>
<text text-anchor="middle" x="77" y="-37.8" font-family="Helvetica,sans-Serif" font-size="14.00">samples = 3</text>
<text text-anchor="middle" x="77" y="-22.8" font-family="Helvetica,sans-Serif" font-size="14.00">value = [3, 0]</text>
<text text-anchor="middle" x="77" y="-7.8" font-family="Helvetica,sans-Serif" font-size="14.00">class = Normal</text>
</g>
<!-- 4&#45;&gt;5 -->
<g id="edge5" class="edge"><title>4&#45;&gt;5</title>
<path fill="none" stroke="black" d="M118.424,-103.726C113.146,-94.9703 107.561,-85.7032 102.258,-76.9051"/>
<polygon fill="black" stroke="black" points="105.231,-75.0574 97.071,-68.2996 99.2356,-78.671 105.231,-75.0574"/>
</g>
<!-- 6 -->
<g id="node7" class="node"><title>6</title>
<path fill="#399de5" stroke="black" d="M258,-68C258,-68 162,-68 162,-68 156,-68 150,-62 150,-56 150,-56 150,-12 150,-12 150,-6 156,-0 162,-0 162,-0 258,-0 258,-0 264,-0 270,-6 270,-12 270,-12 270,-56 270,-56 270,-62 264,-68 258,-68"/>
<text text-anchor="middle" x="210" y="-52.8" font-family="Helvetica,sans-Serif" font-size="14.00">gini = 0.0</text>
<text text-anchor="middle" x="210" y="-37.8" font-family="Helvetica,sans-Serif" font-size="14.00">samples = 16</text>
<text text-anchor="middle" x="210" y="-22.8" font-family="Helvetica,sans-Serif" font-size="14.00">value = [0, 16]</text>
<text text-anchor="middle" x="210" y="-7.8" font-family="Helvetica,sans-Serif" font-size="14.00">class = Anomaly</text>
</g>
<!-- 4&#45;&gt;6 -->
<g id="edge6" class="edge"><title>4&#45;&gt;6</title>
<path fill="none" stroke="black" d="M167.948,-103.726C173.306,-94.9703 178.976,-85.7032 184.359,-76.9051"/>
<polygon fill="black" stroke="black" points="187.391,-78.6563 189.625,-68.2996 181.42,-75.0028 187.391,-78.6563"/>
</g>
<!-- 10 -->
<g id="node11" class="node"><title>10</title>
<path fill="#e58139" stroke="black" d="M539.5,-298.5C539.5,-298.5 450.5,-298.5 450.5,-298.5 444.5,-298.5 438.5,-292.5 438.5,-286.5 438.5,-286.5 438.5,-242.5 438.5,-242.5 438.5,-236.5 444.5,-230.5 450.5,-230.5 450.5,-230.5 539.5,-230.5 539.5,-230.5 545.5,-230.5 551.5,-236.5 551.5,-242.5 551.5,-242.5 551.5,-286.5 551.5,-286.5 551.5,-292.5 545.5,-298.5 539.5,-298.5"/>
<text text-anchor="middle" x="495" y="-283.3" font-family="Helvetica,sans-Serif" font-size="14.00">gini = 0.0</text>
<text text-anchor="middle" x="495" y="-268.3" font-family="Helvetica,sans-Serif" font-size="14.00">samples = 144</text>
<text text-anchor="middle" x="495" y="-253.3" font-family="Helvetica,sans-Serif" font-size="14.00">value = [144, 0]</text>
<text text-anchor="middle" x="495" y="-238.3" font-family="Helvetica,sans-Serif" font-size="14.00">class = Normal</text>
</g>
<!-- 9&#45;&gt;10 -->
<g id="edge10" class="edge"><title>9&#45;&gt;10</title>
<path fill="none" stroke="black" d="M538.102,-341.907C531.815,-330.763 524.987,-318.658 518.658,-307.439"/>
<polygon fill="black" stroke="black" points="521.671,-305.657 513.71,-298.667 515.574,-309.096 521.671,-305.657"/>
</g>
<!-- 11 -->
<g id="node12" class="node"><title>11</title>
<path fill="#399de5" stroke="black" d="M678,-298.5C678,-298.5 582,-298.5 582,-298.5 576,-298.5 570,-292.5 570,-286.5 570,-286.5 570,-242.5 570,-242.5 570,-236.5 576,-230.5 582,-230.5 582,-230.5 678,-230.5 678,-230.5 684,-230.5 690,-236.5 690,-242.5 690,-242.5 690,-286.5 690,-286.5 690,-292.5 684,-298.5 678,-298.5"/>
<text text-anchor="middle" x="630" y="-283.3" font-family="Helvetica,sans-Serif" font-size="14.00">gini = 0.0</text>
<text text-anchor="middle" x="630" y="-268.3" font-family="Helvetica,sans-Serif" font-size="14.00">samples = 1</text>
<text text-anchor="middle" x="630" y="-253.3" font-family="Helvetica,sans-Serif" font-size="14.00">value = [0, 1]</text>
<text text-anchor="middle" x="630" y="-238.3" font-family="Helvetica,sans-Serif" font-size="14.00">class = Anomaly</text>
</g>
<!-- 9&#45;&gt;11 -->
<g id="edge11" class="edge"><title>9&#45;&gt;11</title>
<path fill="none" stroke="black" d="M584.939,-341.907C591.512,-330.763 598.65,-318.658 605.267,-307.439"/>
<polygon fill="black" stroke="black" points="608.375,-309.059 610.44,-298.667 602.345,-305.503 608.375,-309.059"/>
</g>
<!-- 13 -->
<g id="node14" class="node"><title>13</title>
<path fill="#3e9fe6" stroke="black" d="M967.5,-425C967.5,-425 716.5,-425 716.5,-425 710.5,-425 704.5,-419 704.5,-413 704.5,-413 704.5,-354 704.5,-354 704.5,-348 710.5,-342 716.5,-342 716.5,-342 967.5,-342 967.5,-342 973.5,-342 979.5,-348 979.5,-354 979.5,-354 979.5,-413 979.5,-413 979.5,-419 973.5,-425 967.5,-425"/>
<text text-anchor="middle" x="842" y="-409.8" font-family="Helvetica,sans-Serif" font-size="14.00">從源主機到目標主機的數據的bytes &lt;= 34478.0</text>
<text text-anchor="middle" x="842" y="-394.8" font-family="Helvetica,sans-Serif" font-size="14.00">gini = 0.048</text>
<text text-anchor="middle" x="842" y="-379.8" font-family="Helvetica,sans-Serif" font-size="14.00">samples = 162</text>
<text text-anchor="middle" x="842" y="-364.8" font-family="Helvetica,sans-Serif" font-size="14.00">value = [4, 158]</text>
<text text-anchor="middle" x="842" y="-349.8" font-family="Helvetica,sans-Serif" font-size="14.00">class = Anomaly</text>
</g>
<!-- 12&#45;&gt;13 -->
<g id="edge13" class="edge"><title>12&#45;&gt;13</title>
<path fill="none" stroke="black" d="M842,-460.907C842,-452.649 842,-443.864 842,-435.302"/>
<polygon fill="black" stroke="black" points="845.5,-435.021 842,-425.021 838.5,-435.021 845.5,-435.021"/>
</g>
<!-- 20 -->
<g id="node21" class="node"><title>20</title>
<path fill="#e58139" stroke="black" d="M1096,-417.5C1096,-417.5 1010,-417.5 1010,-417.5 1004,-417.5 998,-411.5 998,-405.5 998,-405.5 998,-361.5 998,-361.5 998,-355.5 1004,-349.5 1010,-349.5 1010,-349.5 1096,-349.5 1096,-349.5 1102,-349.5 1108,-355.5 1108,-361.5 1108,-361.5 1108,-405.5 1108,-405.5 1108,-411.5 1102,-417.5 1096,-417.5"/>
<text text-anchor="middle" x="1053" y="-402.3" font-family="Helvetica,sans-Serif" font-size="14.00">gini = 0.0</text>
<text text-anchor="middle" x="1053" y="-387.3" font-family="Helvetica,sans-Serif" font-size="14.00">samples = 5</text>
<text text-anchor="middle" x="1053" y="-372.3" font-family="Helvetica,sans-Serif" font-size="14.00">value = [5, 0]</text>
<text text-anchor="middle" x="1053" y="-357.3" font-family="Helvetica,sans-Serif" font-size="14.00">class = Normal</text>
</g>
<!-- 12&#45;&gt;20 -->
<g id="edge20" class="edge"><title>12&#45;&gt;20</title>
<path fill="none" stroke="black" d="M923.153,-460.823C944.75,-449.576 967.927,-437.122 989,-425 990.282,-424.262 991.575,-423.511 992.876,-422.75"/>
<polygon fill="black" stroke="black" points="994.732,-425.718 1001.53,-417.593 991.149,-419.704 994.732,-425.718"/>
</g>
<!-- 14 -->
<g id="node15" class="node"><title>14</title>
<path fill="#3c9ee5" stroke="black" d="M896.5,-306C896.5,-306 735.5,-306 735.5,-306 729.5,-306 723.5,-300 723.5,-294 723.5,-294 723.5,-235 723.5,-235 723.5,-229 729.5,-223 735.5,-223 735.5,-223 896.5,-223 896.5,-223 902.5,-223 908.5,-229 908.5,-235 908.5,-235 908.5,-294 908.5,-294 908.5,-300 902.5,-306 896.5,-306"/>
<text text-anchor="middle" x="816" y="-290.8" font-family="Helvetica,sans-Serif" font-size="14.00">目標主機的網絡服務類型 &lt;= 0.5</text>
<text text-anchor="middle" x="816" y="-275.8" font-family="Helvetica,sans-Serif" font-size="14.00">gini = 0.025</text>
<text text-anchor="middle" x="816" y="-260.8" font-family="Helvetica,sans-Serif" font-size="14.00">samples = 160</text>
<text text-anchor="middle" x="816" y="-245.8" font-family="Helvetica,sans-Serif" font-size="14.00">value = [2, 158]</text>
<text text-anchor="middle" x="816" y="-230.8" font-family="Helvetica,sans-Serif" font-size="14.00">class = Anomaly</text>
</g>
<!-- 13&#45;&gt;14 -->
<g id="edge14" class="edge"><title>13&#45;&gt;14</title>
<path fill="none" stroke="black" d="M832.979,-341.907C831.124,-333.558 829.149,-324.671 827.227,-316.02"/>
<polygon fill="black" stroke="black" points="830.591,-315.023 825.005,-306.021 823.757,-316.542 830.591,-315.023"/>
</g>
<!-- 19 -->
<g id="node20" class="node"><title>19</title>
<path fill="#e58139" stroke="black" d="M1025,-298.5C1025,-298.5 939,-298.5 939,-298.5 933,-298.5 927,-292.5 927,-286.5 927,-286.5 927,-242.5 927,-242.5 927,-236.5 933,-230.5 939,-230.5 939,-230.5 1025,-230.5 1025,-230.5 1031,-230.5 1037,-236.5 1037,-242.5 1037,-242.5 1037,-286.5 1037,-286.5 1037,-292.5 1031,-298.5 1025,-298.5"/>
<text text-anchor="middle" x="982" y="-283.3" font-family="Helvetica,sans-Serif" font-size="14.00">gini = 0.0</text>
<text text-anchor="middle" x="982" y="-268.3" font-family="Helvetica,sans-Serif" font-size="14.00">samples = 2</text>
<text text-anchor="middle" x="982" y="-253.3" font-family="Helvetica,sans-Serif" font-size="14.00">value = [2, 0]</text>
<text text-anchor="middle" x="982" y="-238.3" font-family="Helvetica,sans-Serif" font-size="14.00">class = Normal</text>
</g>
<!-- 13&#45;&gt;19 -->
<g id="edge19" class="edge"><title>13&#45;&gt;19</title>
<path fill="none" stroke="black" d="M890.572,-341.907C904.832,-329.99 920.405,-316.976 934.592,-305.12"/>
<polygon fill="black" stroke="black" points="936.884,-307.765 942.313,-298.667 932.395,-302.394 936.884,-307.765"/>
</g>
<!-- 15 -->
<g id="node16" class="node"><title>15</title>
<path fill="#65b3eb" stroke="black" d="M740.5,-187C740.5,-187 523.5,-187 523.5,-187 517.5,-187 511.5,-181 511.5,-175 511.5,-175 511.5,-116 511.5,-116 511.5,-110 517.5,-104 523.5,-104 523.5,-104 740.5,-104 740.5,-104 746.5,-104 752.5,-110 752.5,-116 752.5,-116 752.5,-175 752.5,-175 752.5,-181 746.5,-187 740.5,-187"/>
<text text-anchor="middle" x="632" y="-171.8" font-family="Helvetica,sans-Serif" font-size="14.00">當前連接具有相同目標主機的連接數 &lt;= 5.0</text>
<text text-anchor="middle" x="632" y="-156.8" font-family="Helvetica,sans-Serif" font-size="14.00">gini = 0.298</text>
<text text-anchor="middle" x="632" y="-141.8" font-family="Helvetica,sans-Serif" font-size="14.00">samples = 11</text>
<text text-anchor="middle" x="632" y="-126.8" font-family="Helvetica,sans-Serif" font-size="14.00">value = [2, 9]</text>
<text text-anchor="middle" x="632" y="-111.8" font-family="Helvetica,sans-Serif" font-size="14.00">class = Anomaly</text>
</g>
<!-- 14&#45;&gt;15 -->
<g id="edge15" class="edge"><title>14&#45;&gt;15</title>
<path fill="none" stroke="black" d="M752.162,-222.907C736.748,-213.106 720.167,-202.563 704.393,-192.533"/>
<polygon fill="black" stroke="black" points="706.042,-189.433 695.725,-187.021 702.286,-195.34 706.042,-189.433"/>
</g>
<!-- 18 -->
<g id="node19" class="node"><title>18</title>
<path fill="#399de5" stroke="black" d="M879,-179.5C879,-179.5 783,-179.5 783,-179.5 777,-179.5 771,-173.5 771,-167.5 771,-167.5 771,-123.5 771,-123.5 771,-117.5 777,-111.5 783,-111.5 783,-111.5 879,-111.5 879,-111.5 885,-111.5 891,-117.5 891,-123.5 891,-123.5 891,-167.5 891,-167.5 891,-173.5 885,-179.5 879,-179.5"/>
<text text-anchor="middle" x="831" y="-164.3" font-family="Helvetica,sans-Serif" font-size="14.00">gini = 0.0</text>
<text text-anchor="middle" x="831" y="-149.3" font-family="Helvetica,sans-Serif" font-size="14.00">samples = 149</text>
<text text-anchor="middle" x="831" y="-134.3" font-family="Helvetica,sans-Serif" font-size="14.00">value = [0, 149]</text>
<text text-anchor="middle" x="831" y="-119.3" font-family="Helvetica,sans-Serif" font-size="14.00">class = Anomaly</text>
</g>
<!-- 14&#45;&gt;18 -->
<g id="edge18" class="edge"><title>14&#45;&gt;18</title>
<path fill="none" stroke="black" d="M821.204,-222.907C822.576,-212.204 824.062,-200.615 825.452,-189.776"/>
<polygon fill="black" stroke="black" points="828.948,-190.031 826.748,-179.667 822.005,-189.141 828.948,-190.031"/>
</g>
<!-- 16 -->
<g id="node17" class="node"><title>16</title>
<path fill="#e58139" stroke="black" d="M608,-68C608,-68 522,-68 522,-68 516,-68 510,-62 510,-56 510,-56 510,-12 510,-12 510,-6 516,-0 522,-0 522,-0 608,-0 608,-0 614,-0 620,-6 620,-12 620,-12 620,-56 620,-56 620,-62 614,-68 608,-68"/>
<text text-anchor="middle" x="565" y="-52.8" font-family="Helvetica,sans-Serif" font-size="14.00">gini = 0.0</text>
<text text-anchor="middle" x="565" y="-37.8" font-family="Helvetica,sans-Serif" font-size="14.00">samples = 1</text>
<text text-anchor="middle" x="565" y="-22.8" font-family="Helvetica,sans-Serif" font-size="14.00">value = [1, 0]</text>
<text text-anchor="middle" x="565" y="-7.8" font-family="Helvetica,sans-Serif" font-size="14.00">class = Normal</text>
</g>
<!-- 15&#45;&gt;16 -->
<g id="edge16" class="edge"><title>15&#45;&gt;16</title>
<path fill="none" stroke="black" d="M607.052,-103.726C601.694,-94.9703 596.024,-85.7032 590.641,-76.9051"/>
<polygon fill="black" stroke="black" points="593.58,-75.0028 585.375,-68.2996 587.609,-78.6563 593.58,-75.0028"/>
</g>
<!-- 17 -->
<g id="node18" class="node"><title>17</title>
<path fill="#4fa8e8" stroke="black" d="M746,-68C746,-68 650,-68 650,-68 644,-68 638,-62 638,-56 638,-56 638,-12 638,-12 638,-6 644,-0 650,-0 650,-0 746,-0 746,-0 752,-0 758,-6 758,-12 758,-12 758,-56 758,-56 758,-62 752,-68 746,-68"/>
<text text-anchor="middle" x="698" y="-52.8" font-family="Helvetica,sans-Serif" font-size="14.00">gini = 0.18</text>
<text text-anchor="middle" x="698" y="-37.8" font-family="Helvetica,sans-Serif" font-size="14.00">samples = 10</text>
<text text-anchor="middle" x="698" y="-22.8" font-family="Helvetica,sans-Serif" font-size="14.00">value = [1, 9]</text>
<text text-anchor="middle" x="698" y="-7.8" font-family="Helvetica,sans-Serif" font-size="14.00">class = Anomaly</text>
</g>
<!-- 15&#45;&gt;17 -->
<g id="edge17" class="edge"><title>15&#45;&gt;17</title>
<path fill="none" stroke="black" d="M656.576,-103.726C661.854,-94.9703 667.439,-85.7032 672.742,-76.9051"/>
<polygon fill="black" stroke="black" points="675.764,-78.671 677.929,-68.2996 669.769,-75.0574 675.764,-78.671"/>
</g>
</g>
</svg>
